<svg id="avvo-logo" xmlns="http://www.w3.org/2000/svg" viewBox="0 0 150 44"><style>.st0{fill:#082947}</style><path class="st0" d="M133.4 44c9.1 0 16.6-7.4 16.6-16.8s-7.5-16.8-16.6-16.8c-9.2 0-16.6 7.4-16.6 16.8S124.3 44 133.4 44m-79-.1c14.5 0 25.6-18.3 26.4-33H70.1c-1.2 9.5-4.2 16.2-8.1 19.6-.3.3-.5.1-.5-.1L60.1 11H49.5l2.8 31.3c.2 1.2 1.1 1.6 2.1 1.6m34.9 0c14.5 0 25.6-18.3 26.3-33h-10.7c-1.2 9.5-4.2 16.2-8.1 19.6-.3.3-.5.1-.5-.1L94.9 11H84.3l2.8 31.3c.2 1.2 1.2 1.6 2.2 1.6m-58.5-30c.3-.3.6-.3.6.1l.9 12.8H20.2c3.7-5.6 7.5-10.2 10.6-12.9m102.6 20.4c-3.7 0-6.7-3-6.7-7.1s3-7.2 6.7-7.2 6.7 3.1 6.7 7.2-3.1 7.1-6.7 7.1m-99.8 9.4h11.6L41.5 2C41.4.3 40.1-.2 38 0 23.7 1.8 6 26.1 0 43.7h11.6c.9-2.5 2.1-5.1 3.3-7.5H33l.6 7.5z"/></svg>