<svg xmlns="http://www.w3.org/2000/svg" xmlns:xlink="http://www.w3.org/1999/xlink" viewBox="0 0 2015.15 1554.7"><defs><pattern id="New_Pattern" data-name="New Pattern" x="163.56" y="357.59" width="95.23" height="95.23" patternUnits="userSpaceOnUse" viewBox="0 0 95.23 95.23"><rect width="95.23" height="95.23" style="fill:none"/><line x1="6.07" x2="6.07" y2="95.23" style="fill:none;stroke:#bcbec0;stroke-miterlimit:10;stroke-width:1.99625325251299px"/><line x1="17.94" x2="17.94" y2="95.23" style="fill:none;stroke:#bcbec0;stroke-miterlimit:10;stroke-width:1.99625325251299px"/><line x1="29.81" x2="29.81" y2="95.23" style="fill:none;stroke:#bcbec0;stroke-miterlimit:10;stroke-width:1.99625325251299px"/><line x1="41.68" x2="41.68" y2="95.23" style="fill:none;stroke:#bcbec0;stroke-miterlimit:10;stroke-width:1.99625325251299px"/><line x1="53.55" x2="53.55" y2="95.23" style="fill:none;stroke:#bcbec0;stroke-miterlimit:10;stroke-width:1.99625325251299px"/><line x1="65.42" x2="65.42" y2="95.23" style="fill:none;stroke:#bcbec0;stroke-miterlimit:10;stroke-width:1.99625325251299px"/><line x1="77.3" x2="77.3" y2="95.23" style="fill:none;stroke:#bcbec0;stroke-miterlimit:10;stroke-width:1.99625325251299px"/><line x1="89.17" x2="89.17" y2="95.23" style="fill:none;stroke:#bcbec0;stroke-miterlimit:10;stroke-width:1.99625325251299px"/></pattern></defs><title>background-paper</title><g style="isolation:isolate"><g id="Layer_1" data-name="Layer 1"><polygon points="17.15 66.26 10.29 66.26 10.29 66.26 7.26 66.26 7.26 73.11 7.26 73.11 7.26 74.5 7.26 76.15 14.12 76.15 17.15 76.15 17.15 66.26" style="fill:none"/><polygon points="10.29 64.28 10.29 64.28 17.15 64.28 17.15 61.24 17.15 54.39 7.26 54.39 7.26 57.42 7.26 57.42 7.26 64.28 10.02 64.28 10.29 64.28" style="fill:none"/><polygon points="52.77 76.15 52.77 73.11 52.77 73.11 52.77 66.26 42.87 66.26 42.87 66.26 42.87 66.26 42.87 68.28 42.87 76.15 45.91 76.15 52.77 76.15" style="fill:none"/><polygon points="40.9 69.29 40.9 66.26 34.04 66.26 34.04 66.26 31 66.26 31 66.26 31 66.26 31 73.12 31 73.12 31 76.15 37.86 76.15 37.86 76.15 40.9 76.15 40.9 69.29 40.9 69.29" style="fill:none"/><polygon points="31 78.13 31 88.02 31.94 88.02 34.04 88.02 34.04 88.02 40.9 88.02 40.9 87.41 40.9 84.99 40.9 84.99 40.9 78.13 31 78.13 31 78.13" style="fill:none"/><polygon points="17.15 52.41 17.15 45.55 17.15 45.55 17.15 42.51 10.29 42.51 10.29 42.52 8.38 42.51 7.26 42.51 7.26 52.41 7.26 52.41 7.26 52.41 14.12 52.41 14.12 52.41 17.15 52.41" style="fill:none"/><polygon points="19.13 84.99 19.13 84.99 19.13 87.77 19.13 88.02 25.99 88.02 25.99 88.02 29.02 88.02 29.02 88.02 29.02 88.02 29.02 78.13 19.13 78.13 19.13 84.99" style="fill:none"/><polygon points="42.87 21.81 42.87 21.81 42.87 28.66 42.87 28.66 52.77 28.66 52.77 26 52.77 18.77 42.87 18.77 42.87 18.77 42.87 18.77 42.87 21.81" style="fill:none"/><polygon points="52.77 78.13 45.91 78.13 42.87 78.13 42.87 76.15 42.87 88.02 49.73 88.02 49.73 88.02 52.77 88.02 52.77 81.16 52.77 81.16 52.77 78.13" style="fill:none"/><polygon points="40.9 18.77 40.9 18.77 40.9 17.78 40.9 17.12 40.9 18.77" style="fill:none"/><polygon points="17.15 21.81 17.15 18.77 10.29 18.77 10.29 18.77 7.26 18.77 7.26 28.66 14.12 28.66 17.15 28.66 17.15 21.81" style="fill:none"/><polygon points="31 28.66 40.9 28.66 40.9 28.66 40.9 21.2 40.9 18.77 34.04 18.77 34.04 18.77 31.68 18.77 31 18.77 31 25.63 31 25.63 31 28.66" style="fill:none"/><polygon points="17.15 37.5 17.15 37.5 17.15 28.66 17.15 28.66 17.15 30.64 14.12 30.64 7.26 30.64 7.26 33.67 7.26 33.67 7.26 40.54 17.15 40.53 17.15 37.5" style="fill:none"/><polygon points="19.13 19.73 19.13 28.66 29.02 28.66 29.02 25.63 29.02 25.63 29.02 18.77 19.13 18.77 19.13 18.77 19.13 19.73" style="fill:none"/><polygon points="78.49 33.67 78.49 33.67 78.49 40.54 79.82 40.54 81.52 40.53 81.52 40.54 88.38 40.54 88.38 37.5 88.38 37.5 88.38 30.64 78.49 30.64 78.49 33.67" style="fill:none"/><polygon points="85.35 6.9 78.49 6.9 78.49 9.93 78.49 9.93 78.49 16.79 79.56 16.79 81.52 16.79 81.52 16.79 88.38 16.79 88.38 6.9 85.35 6.9 85.35 6.9" style="fill:none"/><polygon points="88.38 18.77 88.38 17.42 88.38 18.77 88.38 18.77" style="fill:none"/><polygon points="10.29 16.79 10.29 16.79 17.15 16.79 17.15 16.54 17.15 13.76 17.15 13.76 17.15 6.9 14.12 6.9 7.26 6.9 7.26 7.33 7.26 16.79 9.87 16.79 10.29 16.79" style="fill:none"/><polygon points="66.62 16.79 73.47 16.79 73.47 16.79 76.51 16.79 76.51 6.9 76.51 6.9 66.62 6.9 66.62 13.76 66.62 13.76 66.62 16.79" style="fill:none"/><polygon points="54.74 28.66 64.64 28.66 64.64 20.34 64.64 18.77 54.74 18.77 54.74 25.63 54.74 25.63 54.74 28.66" style="fill:none"/><polygon points="31 9.93 31 9.93 31 16.79 40.9 16.79 40.9 13.76 40.9 6.9 31 6.9 31 6.9 31 9.93" style="fill:none"/><polygon points="54.74 9.93 54.74 16.79 55.89 16.79 57.78 16.79 57.78 16.79 64.64 16.79 64.64 14.47 64.64 4.92 64.64 6.9 54.74 6.9 54.74 9.93 54.74 9.93" style="fill:none"/><polygon points="85.35 78.13 85.35 78.13 78.49 78.13 78.49 80.62 78.49 88.02 88.38 88.02 88.38 84.99 88.38 84.99 88.38 76.15 88.38 78.13 85.35 78.13" style="fill:none"/><polygon points="78.49 76.15 88.38 76.15 88.38 76.15 88.38 66.26 78.49 66.26 78.49 76.15" style="fill:none"/><polygon points="64.64 84.99 64.64 76.15 64.64 78.13 61.6 78.13 54.74 78.13 54.74 78.62 54.74 88.02 55.69 88.02 57.78 88.02 57.78 88.02 64.64 88.02 64.64 85.6 64.64 84.99 64.64 84.99" style="fill:none"/><polygon points="76.51 78.13 66.62 78.13 66.62 76.15 66.62 86.68 66.62 88.02 75.81 88.02 76.51 88.02 76.51 88.02 76.51 88.02 76.51 81.16 76.51 81.16 76.51 78.13" style="fill:none"/><polygon points="78.49 64.28 79.88 64.28 81.52 64.28 81.52 64.28 88.38 64.28 88.38 54.39 78.49 54.39 78.49 64.28" style="fill:none"/><polygon points="88.38 41.62 88.38 40.79 88.38 40.54 88.38 41.62" style="fill:none"/><polygon points="78.49 49.37 78.49 49.37 78.49 52.41 85.35 52.41 85.35 52.41 88.38 52.41 88.38 52.41 88.38 42.52 78.49 42.52 78.49 49.37" style="fill:none"/><polygon points="78.49 18.77 78.49 25.63 78.49 28.66 85.35 28.66 85.35 28.66 88.38 28.66 88.38 28.66 88.38 21.17 88.38 18.77 78.49 18.77" style="fill:none"/><polygon points="64.64 64.28 64.64 66.26 64.64 66.26 64.64 64.52 64.64 64.28" style="fill:none"/><polygon points="42.87 40.54 50.87 40.54 52.77 40.53 52.77 30.64 45.91 30.64 42.87 30.64 42.87 40.54" style="fill:none"/><polygon points="34.04 42.51 34.04 42.52 31.69 42.51 31 42.51 31 49.37 31 49.37 31 52.41 40.9 52.41 40.9 42.51 34.04 42.51" style="fill:none"/><polygon points="37.86 30.64 31 30.64 31 30.64 31 40.53 40.9 40.53 40.9 30.64 37.86 30.64 37.86 30.64" style="fill:none"/><rect x="42.87" y="42.51" width="9.89" height="9.89" style="fill:none"/><polygon points="52.77 57.05 52.77 54.39 45.91 54.39 42.87 54.39 42.87 52.41 42.87 61.24 42.87 64.28 42.87 64.28 50.1 64.28 52.77 64.28 52.77 57.42 52.77 57.42 52.77 57.05" style="fill:none"/><polygon points="40.9 61.24 40.9 52.41 40.9 52.41 40.9 54.38 37.86 54.39 37.86 54.38 31 54.38 31 54.39 31 57.42 31 57.42 31 64.28 40.9 64.28 40.9 61.24 40.9 61.24" style="fill:none"/><polygon points="17.15 40.88 17.15 40.54 17.15 42.51 17.15 42.51 17.15 40.88" style="fill:none"/><polygon points="88.38 88.91 88.38 88.24 88.38 88.02 88.38 88.91" style="fill:none"/><polygon points="14.12 78.13 7.26 78.13 7.26 81.16 7.26 81.16 7.26 88.02 17.15 88.02 17.15 78.13 14.12 78.13" style="fill:none"/><polygon points="57.78 64.28 57.78 64.28 64.64 64.28 64.64 61.24 64.64 61.24 64.64 52.41 64.64 54.39 61.6 54.39 54.74 54.39 54.74 54.89 54.74 64.28 55.69 64.28 57.78 64.28" style="fill:none"/><polygon points="66.62 37.5 66.62 39.19 66.62 40.54 73.47 40.54 73.47 40.54 76.51 40.54 76.51 30.64 76.51 30.64 76.51 30.64 66.62 30.64 66.62 37.5 66.62 37.5" style="fill:none"/><polygon points="76.51 49.37 76.51 42.52 76.51 42.52 76.51 42.52 75.35 42.52 66.62 42.52 66.62 52.41 69.65 52.41 69.65 52.41 76.51 52.41 76.51 52.41 76.51 49.37" style="fill:none"/><polygon points="76.51 73.11 76.51 66.26 75.43 66.26 73.47 66.26 73.47 66.26 66.62 66.26 66.62 67.21 66.62 76.15 76.51 76.15 76.51 73.11 76.51 73.11" style="fill:none"/><polygon points="66.62 62.86 66.62 64.28 73.47 64.28 73.47 64.28 76.51 64.28 76.51 57.42 76.51 57.42 76.51 54.39 76.51 54.39 66.62 54.38 66.62 52.41 66.62 62.86" style="fill:none"/><polygon points="64.64 18.77 64.64 17.25 64.64 16.79 64.64 18.77 64.64 18.77" style="fill:none"/><polygon points="64.64 66.26 54.74 66.26 54.74 75.64 54.74 76.15 64.64 76.15 64.64 69.29 64.64 69.29 64.64 66.26" style="fill:none"/><polygon points="73.47 18.77 73.47 18.77 66.62 18.77 66.62 18.77 66.62 21.81 66.62 21.81 66.62 28.66 69.65 28.66 69.65 28.66 76.51 28.66 76.51 18.77 73.47 18.77" style="fill:none"/><polygon points="61.6 30.64 54.74 30.64 54.74 31.21 54.74 33.67 54.74 33.67 54.74 40.54 54.74 40.54 57.78 40.54 57.78 40.54 64.64 40.54 64.64 42.52 64.64 42.52 64.64 28.66 64.64 30.64 61.6 30.64" style="fill:none"/><polygon points="29.02 40.53 29.02 33.67 29.02 33.67 29.02 30.64 22.16 30.64 22.16 30.64 19.13 30.64 19.13 40.54 27.82 40.54 29.02 40.53" style="fill:none"/><polygon points="64.64 42.52 54.74 42.52 54.74 49.37 54.74 49.37 54.74 52.41 61.6 52.41 64.64 52.41 64.64 45.55 64.64 45.55 64.64 42.52" style="fill:none"/><polygon points="29.02 52.41 29.02 49.37 29.02 42.51 27.54 42.51 25.99 42.52 25.99 42.51 19.13 42.52 19.13 52.41 29.02 52.41 29.02 52.41" style="fill:none"/><polygon points="29.02 66.26 19.13 66.26 19.13 66.26 19.13 69.29 19.13 69.29 19.13 76.15 29.02 76.15 29.02 73.12 29.02 66.26" style="fill:none"/><polygon points="19.13 64.28 19.13 64.28 19.13 64.28 27.45 64.28 29.02 64.28 29.02 57.42 29.02 54.38 22.16 54.38 22.16 54.39 19.13 54.39 19.13 61.24 19.13 61.24 19.13 64.28" style="fill:none"/><polygon points="19.13 16.79 19.13 16.79 19.13 16.79 28.69 16.79 29.02 16.79 29.02 16.79 29.02 16.79 29.02 9.93 29.02 9.93 29.02 6.9 22.16 6.9 19.13 6.9 19.13 4.92 19.13 15.38 19.13 16.79" style="fill:none"/><polygon points="42.87 13.76 42.87 15.69 42.87 16.79 50.57 16.79 52.77 16.79 52.77 6.9 52.77 6.9 52.77 6.9 45.91 6.9 42.87 6.9 42.87 4.92 42.87 13.76 42.87 13.76" style="fill:none"/><polygon points="5.28 1.89 5.28 4.92 5.28 4.92 5.28 1.89"/><polygon points="7.26 4.92 7.26 4.92 7.26 0 5.28 0 5.28 1.89 7.26 1.89 7.26 4.92"/><rect x="5.28" y="1.89" width="1.98" height="3.03"/><rect x="5.28" y="1.89" width="1.98" height="3.03" style="opacity:0.30000000000000004;mix-blend-mode:multiply"/><rect x="29.02" width="1.98" height="1.89"/><rect x="17.15" width="1.98" height="4.92"/><polygon points="31 1.89 31 1.89 31 4.92 29.02 4.92 29.02 4.92 31 4.92 31 1.89" style="opacity:0.30000000000000004;mix-blend-mode:multiply"/><rect x="29.02" y="1.89" width="1.98" height="3.03"/><rect x="29.02" y="1.89" width="1.98" height="3.03" style="opacity:0.30000000000000004;mix-blend-mode:multiply"/><polygon points="54.74 1.89 54.74 0 52.77 0 52.77 4.92 52.77 4.92 52.77 1.89 54.74 1.89"/><rect x="40.9" width="1.98" height="4.92"/><polygon points="54.74 1.89 54.74 1.89 54.74 4.92 52.77 4.92 52.77 4.92 54.74 4.92 54.74 1.89" style="opacity:0.30000000000000004;mix-blend-mode:multiply"/><rect x="52.77" y="1.89" width="1.98" height="3.03"/><rect x="52.77" y="1.89" width="1.98" height="3.03" style="opacity:0.30000000000000004;mix-blend-mode:multiply"/><rect x="76.51" width="1.98" height="1.89"/><polygon points="66.62 4.92 66.62 0 64.64 0 64.64 4.92 64.64 4.92 66.62 4.92"/><polygon points="76.51 4.92 76.51 4.92 78.49 4.92 76.51 4.92" style="opacity:0.30000000000000004;mix-blend-mode:multiply"/><polygon points="78.49 1.89 78.49 1.89 78.49 4.92 78.49 1.89" style="opacity:0.30000000000000004;mix-blend-mode:multiply"/><rect x="76.51" y="1.89" width="1.98" height="3.03"/><rect x="76.51" y="1.89" width="1.98" height="3.03" style="opacity:0.30000000000000004;mix-blend-mode:multiply"/><rect x="88.38" width="1.98" height="4.92"/><polygon points="5.28 16.79 5.28 16.79 5.28 17.48 5.28 16.79"/><polygon points="4.47 16.79 0 16.79 0 18.77 2.25 18.77 2.25 16.79 4.47 16.79"/><rect x="10.29" y="16.79" width="6.86" height="1.98"/><polygon points="9.87 16.79 7.26 16.79 7.26 17.93 7.26 16.79 9.87 16.79"/><polygon points="5.28 26 5.28 28.66 5.28 28.66 5.28 26"/><polygon points="7.26 28.66 7.26 18.77 7.26 18.77 7.26 17.93 7.26 16.79 7.26 7.33 7.26 9.93 5.28 9.93 5.28 16.79 5.28 17.48 5.28 18.77 5.28 18.77 5.28 25.63 7.26 25.63 7.26 28.66"/><polygon points="7.26 6.9 7.26 6.9 14.12 6.9 14.12 4.92 7.26 4.92 7.26 4.92 5.28 4.92 5.28 4.92 0 4.92 0 6.9 5.28 6.9 5.28 6.9 7.26 6.9"/><polygon points="5.28 25.63 5.28 26 5.28 25.63 5.28 25.63" style="opacity:0.30000000000000004;mix-blend-mode:multiply"/><polygon points="6.27 28.66 7.26 28.66 7.26 25.63 5.28 25.63 5.28 26 5.28 28.66 6.27 28.66"/><polygon points="6.27 28.66 7.26 28.66 7.26 25.63 5.28 25.63 5.28 26 5.28 28.66 6.27 28.66" style="opacity:0.30000000000000004;mix-blend-mode:multiply"/><polygon points="7.26 6.9 7.26 7.33 7.26 6.9 7.26 6.9" style="opacity:0.8;mix-blend-mode:multiply"/><polygon points="5.28 9.93 5.28 9.93 5.28 6.9 5.28 9.93" style="opacity:0.8;mix-blend-mode:multiply"/><polygon points="7.26 7.33 7.26 6.9 7.26 6.9 7.26 6.9 5.28 6.9 5.28 6.9 5.28 9.93 7.26 9.93 7.26 7.33"/><polygon points="7.26 7.33 7.26 6.9 7.26 6.9 7.26 6.9 5.28 6.9 5.28 6.9 5.28 9.93 7.26 9.93 7.26 7.33" style="opacity:0.8;mix-blend-mode:multiply"/><rect x="14.12" y="4.92" width="3.03" height="1.98"/><rect x="14.12" y="4.92" width="3.03" height="1.98" style="opacity:0.30000000000000004;mix-blend-mode:multiply"/><rect x="2.25" y="18.77" width="3.03" style="opacity:0.30000000000000004;mix-blend-mode:multiply"/><polygon points="5.28 16.79 4.47 16.79 5.28 16.79 5.28 16.79" style="opacity:0.30000000000000004;mix-blend-mode:multiply"/><polygon points="5.28 17.48 5.28 16.79 4.47 16.79 2.25 16.79 2.25 18.77 5.28 18.77 5.28 18.77 5.28 18.77 5.28 17.48"/><polygon points="5.28 17.48 5.28 16.79 4.47 16.79 2.25 16.79 2.25 18.77 5.28 18.77 5.28 18.77 5.28 18.77 5.28 17.48" style="opacity:0.30000000000000004;mix-blend-mode:multiply"/><polygon points="9.87 16.79 10.29 16.79 10.29 16.79 9.87 16.79" style="opacity:0.30000000000000004;mix-blend-mode:multiply"/><rect x="7.26" y="18.77" width="3.03" style="opacity:0.30000000000000004;mix-blend-mode:multiply"/><polygon points="10.29 18.77 10.29 16.79 9.87 16.79 7.26 16.79 7.26 17.93 7.26 18.77 7.26 18.77 7.26 18.77 10.29 18.77"/><polygon points="10.29 18.77 10.29 16.79 9.87 16.79 7.26 16.79 7.26 17.93 7.26 18.77 7.26 18.77 7.26 18.77 10.29 18.77" style="opacity:0.30000000000000004;mix-blend-mode:multiply"/><polygon points="34.04 18.77 40.9 18.77 40.9 17.12 40.9 16.79 40.9 16.79 31 16.79 31 16.79 34.04 16.79 34.04 18.77"/><polygon points="31 18.77 31 17.78 31 18.77 31.68 18.77 31 18.77"/><polygon points="29.02 16.79 29.02 16.79 29.02 17.45 29.02 16.79"/><polygon points="29.02 18.77 29.02 18.77 25.99 18.77 25.99 16.79 28.69 16.79 19.13 16.79 19.13 18.77 29.02 18.77"/><polygon points="29.02 18.77 29.02 18.77 29.02 18.77 29.02 25.63 31 25.63 31 18.77 31 17.78 31 16.79 31 16.79 31 16.79 31 9.93 29.02 9.93 29.02 16.79 29.02 17.45 29.02 18.77"/><polygon points="19.13 19.73 19.13 21.81 17.15 21.81 17.15 28.66 19.13 28.66 19.13 19.73"/><polygon points="17.15 16.54 17.15 16.79 17.15 18.77 19.13 18.77 19.13 16.79 19.13 16.79 17.15 16.79 17.15 16.54"/><polygon points="17.15 13.76 19.13 13.76 19.13 15.38 19.13 4.92 17.15 4.92 17.15 4.92 17.15 6.9 17.15 13.76"/><polygon points="29.02 6.9 29.02 6.9 31 6.9 31 6.9 40.9 6.9 37.86 6.9 37.86 4.92 31 4.92 29.02 4.92 22.16 4.92 22.16 6.9 29.02 6.9"/><polygon points="29.02 28.66 31 28.66 31 25.63 31 25.63 31 28.66 29.02 28.66 29.02 25.63 29.02 25.63 29.02 28.66" style="opacity:0.30000000000000004;mix-blend-mode:multiply"/><rect x="29.02" y="25.63" width="1.98" height="3.03"/><rect x="29.02" y="25.63" width="1.98" height="3.03" style="opacity:0.30000000000000004;mix-blend-mode:multiply"/><polygon points="19.13 16.79 19.13 15.38 19.13 16.79 19.13 16.79" style="opacity:0.8;mix-blend-mode:multiply"/><polygon points="17.15 16.54 17.15 13.76 17.15 13.76 17.15 16.54" style="opacity:0.8;mix-blend-mode:multiply"/><polygon points="17.15 16.79 19.13 16.79 19.13 15.38 19.13 13.76 17.15 13.76 17.15 16.54 17.15 16.79"/><polygon points="17.15 16.79 19.13 16.79 19.13 15.38 19.13 13.76 17.15 13.76 17.15 16.54 17.15 16.79" style="opacity:0.8;mix-blend-mode:multiply"/><polygon points="19.13 18.77 19.13 18.77 19.13 19.73 19.13 18.77" style="opacity:0.8;mix-blend-mode:multiply"/><polygon points="19.13 19.73 19.13 18.77 17.15 18.77 17.15 21.81 19.13 21.81 19.13 19.73"/><polygon points="19.13 19.73 19.13 18.77 17.15 18.77 17.15 21.81 19.13 21.81 19.13 19.73" style="opacity:0.8;mix-blend-mode:multiply"/><polygon points="31 6.9 31 6.9 29.37 6.9 31 6.9" style="opacity:0.8;mix-blend-mode:multiply"/><polygon points="31 6.9 31 9.93 31 9.93 31 6.9" style="opacity:0.8;mix-blend-mode:multiply"/><rect x="29.02" y="6.9" height="3.03" style="opacity:0.8;mix-blend-mode:multiply"/><polygon points="31 6.9 29.37 6.9 31 6.9 31 6.9 29.02 6.9 29.02 6.9 29.02 6.9 29.02 9.93 31 9.93 31 6.9"/><polygon points="31 6.9 29.37 6.9 31 6.9 31 6.9 29.02 6.9 29.02 6.9 29.02 6.9 29.02 9.93 31 9.93 31 6.9" style="opacity:0.8;mix-blend-mode:multiply"/><polygon points="22.16 4.92 19.13 4.92 22.16 4.92 22.16 4.92" style="opacity:0.30000000000000004;mix-blend-mode:multiply"/><rect x="19.13" y="4.92" width="3.03" height="1.98"/><rect x="19.13" y="4.92" width="3.03" height="1.98" style="opacity:0.30000000000000004;mix-blend-mode:multiply"/><polygon points="37.86 4.92 37.86 4.92 40.9 4.92 37.86 4.92" style="opacity:0.30000000000000004;mix-blend-mode:multiply"/><polygon points="40.9 6.9 40.9 4.92 40.9 4.92 37.86 4.92 37.86 6.9 40.9 6.9"/><polygon points="40.9 6.9 40.9 4.92 40.9 4.92 37.86 4.92 37.86 6.9 40.9 6.9" style="opacity:0.30000000000000004;mix-blend-mode:multiply"/><polygon points="29.02 16.79 28.69 16.79 29.02 16.79 29.02 16.79" style="opacity:0.30000000000000004;mix-blend-mode:multiply"/><polygon points="25.99 18.77 29.02 18.77 29.02 18.77 29.02 17.45 29.02 16.79 28.69 16.79 25.99 16.79 25.99 18.77"/><polygon points="25.99 18.77 29.02 18.77 29.02 18.77 29.02 17.45 29.02 16.79 28.69 16.79 25.99 16.79 25.99 18.77" style="opacity:0.30000000000000004;mix-blend-mode:multiply"/><polygon points="34.04 18.77 34.04 18.77 31.68 18.77 34.04 18.77" style="opacity:0.30000000000000004;mix-blend-mode:multiply"/><polygon points="31.68 18.77 34.04 18.77 34.04 16.79 31 16.79 31 16.79 31 17.78 31 18.77 31.68 18.77"/><polygon points="31.68 18.77 34.04 18.77 34.04 16.79 31 16.79 31 16.79 31 17.78 31 18.77 31.68 18.77" style="opacity:0.30000000000000004;mix-blend-mode:multiply"/><polygon points="64.64 16.79 57.78 16.79 57.78 18.77 54.74 18.77 54.74 18.77 64.64 18.77 64.64 16.79"/><polygon points="54.74 16.79 54.74 16.79 55.89 16.79 54.74 16.79"/><polygon points="52.77 18.77 52.77 18.77 49.73 18.77 49.73 16.79 50.57 16.79 42.87 16.79 42.87 18.77 52.77 18.77"/><polygon points="40.9 17.12 40.9 17.78 40.9 16.79 40.9 16.79 40.9 16.79 40.9 17.12"/><polygon points="52.77 18.77 52.77 18.77 52.77 18.77 52.77 26 52.77 25.63 54.74 25.63 54.74 18.77 54.74 18.77 54.74 16.79 54.74 16.79 54.74 9.93 52.77 9.93 52.77 6.9 52.77 6.9 52.77 16.79 52.77 16.79 52.77 18.77"/><polygon points="42.87 21.81 40.9 21.81 40.9 21.2 40.9 28.66 42.87 28.66 42.87 21.81"/><polygon points="40.9 6.9 40.9 13.76 42.87 13.76 42.87 4.92 40.9 4.92 40.9 4.92 40.9 6.9"/><polygon points="40.9 16.79 40.9 17.78 40.9 18.77 42.87 18.77 42.87 18.77 42.87 16.79 42.87 15.69 42.87 16.79 40.9 16.79"/><polygon points="52.77 6.9 52.77 6.9 54.74 6.9 54.74 6.9 64.64 6.9 61.6 6.9 61.6 4.92 54.74 4.92 52.77 4.92 45.91 4.92 45.91 6.9 52.77 6.9"/><polygon points="52.77 28.66 52.77 26 52.77 28.66 52.77 28.66" style="opacity:0.30000000000000004;mix-blend-mode:multiply"/><polygon points="54.74 25.63 54.74 25.63 54.74 28.66 54.74 25.63" style="opacity:0.30000000000000004;mix-blend-mode:multiply"/><polygon points="54.74 28.66 54.74 25.63 52.77 25.63 52.77 26 52.77 28.66 54.74 28.66"/><polygon points="54.74 28.66 54.74 25.63 52.77 25.63 52.77 26 52.77 28.66 54.74 28.66" style="opacity:0.30000000000000004;mix-blend-mode:multiply"/><polygon points="42.87 13.76 42.87 13.76 42.87 15.69 42.87 13.76" style="opacity:0.8;mix-blend-mode:multiply"/><polygon points="40.9 16.79 40.9 16.79 40.9 16.79 40.9 13.76 40.9 16.79 40.9 16.79" style="opacity:0.8;mix-blend-mode:multiply"/><polygon points="42.87 16.79 42.87 15.69 42.87 13.76 40.9 13.76 40.9 16.79 42.87 16.79"/><polygon points="42.87 16.79 42.87 15.69 42.87 13.76 40.9 13.76 40.9 16.79 42.87 16.79" style="opacity:0.8;mix-blend-mode:multiply"/><rect x="40.89" y="16.79"/><rect x="40.89" y="16.79" style="opacity:0.8;mix-blend-mode:multiply"/><polygon points="40.9 21.2 40.9 18.77 40.9 18.77 40.9 21.2" style="opacity:0.8;mix-blend-mode:multiply"/><rect x="42.87" y="18.77" height="3.03" style="opacity:0.8;mix-blend-mode:multiply"/><polygon points="40.9 21.81 42.87 21.81 42.87 18.77 40.9 18.77 40.9 21.2 40.9 21.81"/><polygon points="40.9 21.81 42.87 21.81 42.87 18.77 40.9 18.77 40.9 21.2 40.9 21.81" style="opacity:0.8;mix-blend-mode:multiply"/><polygon points="54.74 9.93 54.74 6.9 54.74 9.93 54.74 9.93" style="opacity:0.8;mix-blend-mode:multiply"/><polygon points="52.77 6.9 52.77 6.9 53.08 6.9 52.77 6.9" style="opacity:0.8;mix-blend-mode:multiply"/><polygon points="54.74 9.93 54.74 6.9 54.74 6.9 52.77 6.9 52.77 6.9 53.08 6.9 52.77 6.9 52.77 9.93 54.74 9.93"/><polygon points="54.74 9.93 54.74 6.9 54.74 6.9 52.77 6.9 52.77 6.9 53.08 6.9 52.77 6.9 52.77 9.93 54.74 9.93" style="opacity:0.8;mix-blend-mode:multiply"/><polygon points="45.91 4.92 42.87 4.92 45.91 4.92 45.91 4.92" style="opacity:0.30000000000000004;mix-blend-mode:multiply"/><rect x="42.87" y="4.92" width="3.03" height="1.98"/><rect x="42.87" y="4.92" width="3.03" height="1.98" style="opacity:0.30000000000000004;mix-blend-mode:multiply"/><polygon points="61.6 4.92 61.6 4.92 64.64 4.92 61.6 4.92" style="opacity:0.30000000000000004;mix-blend-mode:multiply"/><polygon points="64.64 6.9 64.64 4.92 64.64 4.92 64.64 4.92 61.6 4.92 61.6 6.9 64.64 6.9"/><polygon points="64.64 6.9 64.64 4.92 64.64 4.92 64.64 4.92 61.6 4.92 61.6 6.9 64.64 6.9" style="opacity:0.30000000000000004;mix-blend-mode:multiply"/><polygon points="52.77 16.79 50.57 16.79 52.77 16.79 52.77 16.79" style="opacity:0.30000000000000004;mix-blend-mode:multiply"/><polygon points="49.73 18.77 52.77 18.77 52.77 18.77 52.77 16.79 52.77 16.79 52.77 16.79 50.57 16.79 49.73 16.79 49.73 18.77"/><polygon points="49.73 18.77 52.77 18.77 52.77 18.77 52.77 16.79 52.77 16.79 52.77 16.79 50.57 16.79 49.73 16.79 49.73 18.77" style="opacity:0.30000000000000004;mix-blend-mode:multiply"/><polygon points="57.78 16.79 55.89 16.79 57.78 16.79 57.78 16.79" style="opacity:0.30000000000000004;mix-blend-mode:multiply"/><polygon points="57.78 16.79 55.89 16.79 54.74 16.79 54.74 18.77 57.78 18.77 57.78 16.79"/><polygon points="57.78 16.79 55.89 16.79 54.74 16.79 54.74 18.77 57.78 18.77 57.78 16.79" style="opacity:0.30000000000000004;mix-blend-mode:multiply"/><polygon points="64.64 16.79 64.64 16.79 64.64 17.25 64.64 16.79"/><polygon points="73.47 18.77 73.47 16.79 66.62 16.79 66.62 16.79 66.62 18.77 73.47 18.77"/><polygon points="81.52 18.77 78.49 18.77 88.38 18.77 88.38 17.42 88.38 16.79 81.52 16.79 81.52 18.77"/><polygon points="79.56 16.79 78.49 16.79 78.49 16.79 79.56 16.79"/><polygon points="78.49 28.66 78.49 25.63 78.49 28.66 78.49 28.66"/><polygon points="76.51 6.9 76.51 16.79 76.51 16.79 76.51 18.77 76.51 18.77 76.51 28.66 76.51 25.63 78.49 25.63 78.49 18.77 78.49 16.79 78.49 16.79 78.49 9.93 76.51 9.93 76.51 6.9"/><polygon points="64.64 18.77 66.62 18.77 66.62 18.77 66.62 16.79 64.64 16.79 64.64 17.25 64.64 18.77"/><polygon points="64.64 20.34 64.64 28.66 64.64 28.66 66.62 28.66 66.62 21.81 64.64 21.81 64.64 20.34"/><polygon points="64.64 4.92 64.64 14.47 64.64 13.76 66.62 13.76 66.62 6.9 66.62 4.92 66.62 4.92 64.64 4.92 64.64 4.92"/><polygon points="69.65 6.9 66.62 6.9 76.51 6.9 76.51 6.9 78.49 6.9 78.49 6.9 85.35 6.9 85.35 4.92 88.38 4.92 78.49 4.92 76.51 4.92 66.62 4.92 69.65 4.92 69.65 6.9"/><polygon points="76.51 28.66 78.36 28.66 78.49 28.66 78.49 25.63 76.51 25.63 76.51 28.66"/><polygon points="76.51 28.66 78.36 28.66 78.49 28.66 78.49 25.63 76.51 25.63 76.51 28.66" style="opacity:0.30000000000000004;mix-blend-mode:multiply"/><polygon points="66.62 13.76 66.62 13.76 66.62 16.79 66.62 13.76" style="opacity:0.8;mix-blend-mode:multiply"/><polygon points="64.64 16.79 64.64 14.47 64.64 16.79 64.64 16.79" style="opacity:0.8;mix-blend-mode:multiply"/><polygon points="66.62 16.79 66.62 16.79 66.62 13.76 64.64 13.76 64.64 14.47 64.64 16.79 66.62 16.79"/><polygon points="66.62 16.79 66.62 16.79 66.62 13.76 64.64 13.76 64.64 14.47 64.64 16.79 66.62 16.79" style="opacity:0.8;mix-blend-mode:multiply"/><polygon points="64.64 18.77 64.64 20.34 64.64 18.77 64.64 18.77" style="opacity:0.8;mix-blend-mode:multiply"/><polygon points="66.62 21.81 66.62 18.77 66.62 21.81 66.62 21.81" style="opacity:0.8;mix-blend-mode:multiply"/><polygon points="64.64 20.34 64.64 21.81 66.62 21.81 66.62 18.77 64.64 18.77 64.64 20.34"/><polygon points="64.64 20.34 64.64 21.81 66.62 21.81 66.62 18.77 64.64 18.77 64.64 20.34" style="opacity:0.8;mix-blend-mode:multiply"/><polygon points="78.49 9.93 78.49 6.9 78.49 9.93 78.49 9.93" style="opacity:0.8;mix-blend-mode:multiply"/><polygon points="77.29 6.9 76.51 6.9 76.51 6.9 77.29 6.9" style="opacity:0.8;mix-blend-mode:multiply"/><polygon points="76.51 6.9 76.51 9.93 78.49 9.93 78.49 6.9 78.49 6.9 76.51 6.9 76.51 6.9 77.29 6.9 76.51 6.9"/><polygon points="76.51 6.9 76.51 9.93 78.49 9.93 78.49 6.9 78.49 6.9 76.51 6.9 76.51 6.9 77.29 6.9 76.51 6.9" style="opacity:0.8;mix-blend-mode:multiply"/><polygon points="66.62 6.9 69.65 6.9 69.65 4.92 66.62 4.92 66.62 4.92 66.62 6.9"/><polygon points="66.62 6.9 69.65 6.9 69.65 4.92 66.62 4.92 66.62 4.92 66.62 6.9" style="opacity:0.30000000000000004;mix-blend-mode:multiply"/><polygon points="85.35 6.9 88.38 6.9 85.35 6.9 85.35 6.9" style="opacity:0.30000000000000004;mix-blend-mode:multiply"/><rect x="85.35" y="4.92" width="3.03" height="1.98"/><rect x="85.35" y="4.92" width="3.03" height="1.98" style="opacity:0.30000000000000004;mix-blend-mode:multiply"/><rect x="73.48" y="18.77" width="3.03" style="opacity:0.30000000000000004;mix-blend-mode:multiply"/><polygon points="73.47 16.79 73.47 16.79 76.51 16.79 73.47 16.79" style="opacity:0.30000000000000004;mix-blend-mode:multiply"/><polygon points="76.51 18.77 76.51 18.77 76.51 18.77 76.51 16.79 76.51 16.79 73.47 16.79 73.47 18.77 76.51 18.77"/><polygon points="76.51 18.77 76.51 18.77 76.51 18.77 76.51 16.79 76.51 16.79 73.47 16.79 73.47 18.77 76.51 18.77" style="opacity:0.30000000000000004;mix-blend-mode:multiply"/><polygon points="81.52 16.79 79.56 16.79 81.52 16.79 81.52 16.79" style="opacity:0.30000000000000004;mix-blend-mode:multiply"/><polygon points="78.49 18.77 81.52 18.77 81.52 16.79 79.56 16.79 78.49 16.79 78.49 18.77"/><polygon points="78.49 18.77 81.52 18.77 81.52 16.79 79.56 16.79 78.49 16.79 78.49 18.77" style="opacity:0.30000000000000004;mix-blend-mode:multiply"/><polygon points="90.36 18.77 95.23 18.77 95.23 16.79 90.36 16.79 90.36 18.77 90.36 18.77"/><polygon points="88.38 21.81 88.38 21.17 88.38 28.66 90.36 28.66 90.36 20.61 90.36 21.81 88.38 21.81"/><path d="M-73.2-350.68v-2h-2v13.85h2v-11.87Zm0,9.89h-2v-3h2Z" transform="translate(163.56 357.59)"/><rect x="93.39" y="4.92" width="1.84" height="1.98"/><rect x="88.38" y="13.76" width="1.98" height="3.03"/><rect x="88.38" y="13.76" width="1.98" height="3.03" style="opacity:0.8;mix-blend-mode:multiply"/><polygon points="90.36 20.61 90.36 18.77 90.36 18.77 90.36 20.61" style="opacity:0.8;mix-blend-mode:multiply"/><polygon points="88.38 21.17 88.38 18.77 88.38 18.77 88.38 21.17" style="opacity:0.8;mix-blend-mode:multiply"/><polygon points="88.38 18.77 88.38 18.77 88.38 21.17 88.38 21.81 90.36 21.81 90.36 20.61 90.36 18.77 88.38 18.77"/><polygon points="88.38 18.77 88.38 18.77 88.38 21.17 88.38 21.81 90.36 21.81 90.36 20.61 90.36 18.77 88.38 18.77" style="opacity:0.8;mix-blend-mode:multiply"/><polygon points="93.39 6.9 93.39 6.9 90.36 6.9 93.39 6.9" style="opacity:0.30000000000000004;mix-blend-mode:multiply"/><polygon points="90.36 6.9 93.39 6.9 93.39 4.92 90.36 4.92 90.36 6.9 90.36 6.9"/><polygon points="90.36 6.9 93.39 6.9 93.39 4.92 90.36 4.92 90.36 6.9 90.36 6.9" style="opacity:0.30000000000000004;mix-blend-mode:multiply"/><polygon points="2.25 40.54 5.28 40.54 5.28 40.54 0 40.54 0 42.52 4.38 42.51 2.25 42.51 2.25 40.54"/><polygon points="7.26 42.51 7.26 40.54 10.29 40.54 10.29 42.51 17.15 42.51 17.15 40.54 17.15 40.53 7.26 40.54 7.26 42.51 8.38 42.51 7.26 42.51"/><polygon points="7.26 49.37 7.26 52.41 7.26 52.41 7.26 42.51 7.26 40.54 7.26 33.67 5.28 33.67 5.28 40.54 5.28 40.54 5.28 40.54 5.28 42.52 5.28 52.41 5.28 52.41 5.28 49.37 7.26 49.37"/><polygon points="7.26 30.64 7.26 30.64 14.12 30.64 14.12 28.66 7.26 28.66 6.27 28.66 5.28 28.66 5.28 28.66 0 28.66 0 30.64 5.28 30.64 5.28 30.64 7.26 30.64"/><rect x="5.28" y="52.41" width="1.98" style="opacity:0.30000000000000004;mix-blend-mode:multiply"/><rect x="5.28" y="49.37" width="1.98" height="3.03"/><rect x="5.28" y="49.37" width="1.98" height="3.03" style="opacity:0.30000000000000004;mix-blend-mode:multiply"/><polygon points="7.26 30.64 7.26 33.67 7.26 33.67 7.26 30.64 5.28 30.64 5.28 33.67 5.28 33.67 5.28 30.64 7.26 30.64" style="opacity:0.8;mix-blend-mode:multiply"/><rect x="5.28" y="30.64" width="1.98" height="3.03"/><rect x="5.28" y="30.64" width="1.98" height="3.03" style="opacity:0.8;mix-blend-mode:multiply"/><rect x="5.28" y="30.64" width="1.98"/><rect x="5.28" y="30.64" width="1.98" style="opacity:0.8;mix-blend-mode:multiply"/><polygon points="17.15 28.66 17.15 28.66 14.12 28.66 14.12 30.64 17.15 30.64 17.15 28.66"/><polygon points="17.15 28.66 17.15 28.66 14.12 28.66 14.12 30.64 17.15 30.64 17.15 28.66" style="opacity:0.30000000000000004;mix-blend-mode:multiply"/><polygon points="4.38 42.51 5.28 42.52 5.28 42.51 4.38 42.51" style="opacity:0.30000000000000004;mix-blend-mode:multiply"/><polygon points="5.28 40.54 2.25 40.54 2.25 42.51 4.38 42.51 5.28 42.51 5.28 42.52 5.28 40.54 5.28 40.54"/><polygon points="5.28 40.54 2.25 40.54 2.25 42.51 4.38 42.51 5.28 42.51 5.28 42.52 5.28 40.54 5.28 40.54" style="opacity:0.30000000000000004;mix-blend-mode:multiply"/><polygon points="10.29 42.52 10.29 42.51 8.38 42.51 10.29 42.52" style="opacity:0.30000000000000004;mix-blend-mode:multiply"/><polygon points="7.26 40.54 7.26 42.51 8.38 42.51 10.29 42.51 10.29 40.54 7.26 40.54"/><polygon points="7.26 40.54 7.26 42.51 8.38 42.51 10.29 42.51 10.29 40.54 7.26 40.54" style="opacity:0.30000000000000004;mix-blend-mode:multiply"/><polygon points="17.15 40.54 17.15 40.54 17.15 40.88 17.15 40.54"/><polygon points="31 41.35 31 40.54 34.04 40.54 34.04 42.51 40.9 42.51 40.9 40.53 31 40.53 31 41.35"/><polygon points="27.82 40.54 19.13 40.54 19.13 42.52 25.99 42.51 25.99 40.54 27.82 40.54"/><polygon points="31 42.51 31.69 42.51 31 42.51 31 42.51"/><polygon points="29.02 42.51 27.54 42.51 29.02 42.51 29.02 41.52 29.02 42.51"/><polygon points="31 42.51 31 42.51 31 42.51 31 41.35 31 40.53 31 30.64 31 33.67 29.02 33.67 29.02 40.53 29.02 40.53 29.02 41.52 29.02 42.51 29.02 49.37 31 49.37 31 42.51"/><polygon points="19.13 40.54 19.13 30.64 19.13 30.64 19.13 28.66 17.15 28.66 17.15 28.66 17.15 28.66 17.15 37.5 19.13 37.5 19.13 40.54 17.15 40.54 17.15 40.88 17.15 42.51 19.13 42.52 19.13 45.55 17.15 45.55 17.15 52.41 19.13 52.41 19.13 42.52 19.13 40.54"/><polygon points="22.16 30.64 29.02 30.64 29.02 30.64 31 30.64 31 30.64 37.86 30.64 37.86 28.66 40.9 28.66 31 28.66 29.02 28.66 19.13 28.66 22.17 28.66 22.16 30.64"/><polygon points="31 49.37 31 52.41 29.02 52.41 29.02 52.41 31 52.41 31 49.37 31 49.37" style="opacity:0.30000000000000004;mix-blend-mode:multiply"/><rect x="29.02" y="49.37" width="1.98" height="3.03"/><rect x="29.02" y="49.37" width="1.98" height="3.03" style="opacity:0.30000000000000004;mix-blend-mode:multiply"/><polygon points="17.15 37.5 17.15 37.5 17.15 40.53 17.15 40.54 17.15 40.54 17.15 37.5" style="opacity:0.8;mix-blend-mode:multiply"/><rect x="17.15" y="37.5" width="1.98" height="3.03"/><rect x="17.15" y="37.5" width="1.98" height="3.03" style="opacity:0.8;mix-blend-mode:multiply"/><rect x="17.15" y="42.51" height="3.03" style="opacity:0.8;mix-blend-mode:multiply"/><rect x="17.15" y="42.51" width="1.98" height="3.03"/><rect x="17.15" y="42.51" width="1.98" height="3.03" style="opacity:0.8;mix-blend-mode:multiply"/><rect x="29.02" y="30.64" height="3.03" style="opacity:0.8;mix-blend-mode:multiply"/><polygon points="30.01 30.64 31 30.64 31 30.64 30.01 30.64" style="opacity:0.8;mix-blend-mode:multiply"/><polygon points="31 30.64 31 30.64 29.02 30.64 29.02 30.64 29.02 30.64 29.02 33.67 31 33.67 31 30.64 30.01 30.64 31 30.64"/><polygon points="31 30.64 31 30.64 29.02 30.64 29.02 30.64 29.02 30.64 29.02 33.67 31 33.67 31 30.64 30.01 30.64 31 30.64" style="opacity:0.8;mix-blend-mode:multiply"/><polygon points="22.16 30.64 19.13 30.64 22.16 30.64 22.16 30.64" style="opacity:0.30000000000000004;mix-blend-mode:multiply"/><polygon points="22.17 28.66 19.13 28.66 19.13 30.64 19.13 30.64 22.16 30.64 22.17 28.66"/><polygon points="22.17 28.66 19.13 28.66 19.13 30.64 19.13 30.64 22.16 30.64 22.17 28.66" style="opacity:0.30000000000000004;mix-blend-mode:multiply"/><polygon points="37.86 30.64 40.9 30.64 37.86 30.64 37.86 30.64" style="opacity:0.30000000000000004;mix-blend-mode:multiply"/><rect x="37.86" y="28.66" width="3.03" height="1.98"/><rect x="37.86" y="28.66" width="3.03" height="1.98" style="opacity:0.30000000000000004;mix-blend-mode:multiply"/><polygon points="29.02 40.54 29.02 40.53 27.82 40.54 29.02 40.54" style="opacity:0.30000000000000004;mix-blend-mode:multiply"/><polygon points="25.99 42.52 27.54 42.51 25.99 42.51 25.99 42.52" style="opacity:0.30000000000000004;mix-blend-mode:multiply"/><polygon points="29.02 41.52 29.02 40.53 29.02 40.53 29.02 40.54 27.82 40.54 25.99 40.54 25.99 42.51 27.54 42.51 29.02 42.51 29.02 41.52"/><polygon points="29.02 41.52 29.02 40.53 29.02 40.53 29.02 40.54 27.82 40.54 25.99 40.54 25.99 42.51 27.54 42.51 29.02 42.51 29.02 41.52" style="opacity:0.30000000000000004;mix-blend-mode:multiply"/><polygon points="34.04 42.52 34.04 42.51 31.69 42.51 34.04 42.52" style="opacity:0.30000000000000004;mix-blend-mode:multiply"/><polygon points="31 40.54 31 41.35 31 42.51 31 42.51 31.69 42.51 34.04 42.51 34.04 40.54 31 40.54"/><polygon points="31 40.54 31 41.35 31 42.51 31 42.51 31.69 42.51 34.04 42.51 34.04 40.54 31 40.54" style="opacity:0.30000000000000004;mix-blend-mode:multiply"/><polygon points="54.74 40.54 54.74 40.54 54.74 41.52 54.74 40.54"/><polygon points="52.77 42.51 49.73 42.52 49.73 40.54 50.87 40.54 42.87 40.54 42.87 42.52 52.77 42.52 52.77 42.51"/><polygon points="54.74 42.52 54.74 42.52 64.64 42.52 64.64 40.54 57.78 40.54 57.78 42.51 54.74 42.52"/><polygon points="54.74 30.64 54.74 30.64 54.74 31.21 54.74 30.64"/><polygon points="52.77 40.53 52.77 42.51 52.77 42.51 52.77 42.52 52.77 52.41 52.77 49.37 54.74 49.37 54.74 42.52 54.74 42.52 54.74 42.52 54.74 41.52 54.74 40.54 54.74 33.67 52.77 33.67 52.77 30.64 52.77 40.53 52.77 40.53"/><path d="M-120.69-305.18v-21.76h0v-2h-2v23.74h2Zm-2-11.87v-3h2v3h-2Zm0,5v-3h2v3Z" transform="translate(163.56 357.59)"/><polygon points="54.74 28.66 52.77 28.66 52.77 28.66 42.87 28.66 45.91 28.66 45.91 30.64 52.77 30.64 52.77 30.64 54.74 30.64 54.74 30.64 54.74 30.64 61.6 30.64 61.6 28.66 64.64 28.66 64.64 28.66 54.74 28.66"/><polygon points="54.74 49.37 54.74 49.37 54.74 52.41 54.74 49.37" style="opacity:0.30000000000000004;mix-blend-mode:multiply"/><rect x="52.77" y="49.37" width="1.98" height="3.03"/><rect x="52.77" y="49.37" width="1.98" height="3.03" style="opacity:0.30000000000000004;mix-blend-mode:multiply"/><polygon points="42.87 37.5 40.9 37.5 40.9 40.53 40.9 40.54 42.87 40.54 42.87 37.5"/><polygon points="42.87 37.5 40.9 37.5 40.9 40.53 40.9 40.54 42.87 40.54 42.87 37.5" style="opacity:0.8;mix-blend-mode:multiply"/><rect x="40.9" y="42.51" width="1.98" height="3.03"/><rect x="40.9" y="42.51" width="1.98" height="3.03" style="opacity:0.8;mix-blend-mode:multiply"/><polygon points="54.74 33.67 54.74 31.21 54.74 33.67 54.74 33.67" style="opacity:0.8;mix-blend-mode:multiply"/><polygon points="54.74 33.67 54.74 31.21 54.74 30.64 54.74 30.64 52.77 30.64 52.77 30.64 52.77 33.67 54.74 33.67"/><polygon points="54.74 33.67 54.74 31.21 54.74 30.64 54.74 30.64 52.77 30.64 52.77 30.64 52.77 33.67 54.74 33.67" style="opacity:0.8;mix-blend-mode:multiply"/><polygon points="42.87 30.64 45.91 30.64 45.91 28.66 42.87 28.66 42.87 30.64 42.87 30.64"/><polygon points="42.87 30.64 45.91 30.64 45.91 28.66 42.87 28.66 42.87 30.64 42.87 30.64" style="opacity:0.30000000000000004;mix-blend-mode:multiply"/><polygon points="61.6 30.64 64.64 30.64 64.64 28.66 64.64 28.66 61.6 28.66 61.6 30.64"/><polygon points="61.6 30.64 64.64 30.64 64.64 28.66 64.64 28.66 61.6 28.66 61.6 30.64" style="opacity:0.30000000000000004;mix-blend-mode:multiply"/><polygon points="52.77 40.53 50.87 40.54 52.77 40.54 52.77 40.53" style="opacity:0.30000000000000004;mix-blend-mode:multiply"/><polygon points="49.73 42.52 52.77 42.51 52.77 42.51 52.77 40.53 52.77 40.53 52.77 40.54 50.87 40.54 49.73 40.54 49.73 42.52"/><polygon points="49.73 42.52 52.77 42.51 52.77 42.51 52.77 40.53 52.77 40.53 52.77 40.54 50.87 40.54 49.73 40.54 49.73 42.52" style="opacity:0.30000000000000004;mix-blend-mode:multiply"/><polygon points="57.78 40.54 54.74 40.54 57.78 40.54 57.78 40.54" style="opacity:0.30000000000000004;mix-blend-mode:multiply"/><polygon points="54.74 42.52 54.74 42.52 57.78 42.51 57.78 40.54 54.74 40.54 54.74 41.52 54.74 42.52"/><polygon points="54.74 42.52 54.74 42.52 57.78 42.51 57.78 40.54 54.74 40.54 54.74 41.52 54.74 42.52" style="opacity:0.30000000000000004;mix-blend-mode:multiply"/><polygon points="76.51 42.52 76.51 40.54 76.51 42.52 76.51 42.52"/><polygon points="88.38 40.54 88.38 40.54 81.52 40.54 81.52 42.51 78.49 42.52 78.49 40.54 79.82 40.54 78.49 40.54 78.49 42.52 88.38 42.52 88.38 41.62 88.38 40.54 88.38 40.54"/><polygon points="73.47 42.52 73.47 40.54 66.62 40.54 66.62 42.52 75.35 42.52 73.47 42.52"/><polygon points="76.51 30.64 76.51 30.64 76.51 40.54 76.51 42.52 76.51 49.37 78.49 49.37 78.49 42.52 78.49 40.54 78.49 33.67 76.51 33.67 76.51 30.64"/><polygon points="66.62 28.66 64.64 28.66 64.64 28.66 64.64 42.52 66.62 42.52 66.62 45.55 64.64 45.55 64.64 52.41 64.64 52.41 66.62 52.41 66.62 52.41 66.62 42.52 66.62 40.54 66.62 39.19 66.62 40.54 64.64 40.54 64.64 37.5 66.62 37.5 66.62 30.64 66.62 28.66 66.62 28.66"/><polygon points="85.35 28.66 78.49 28.66 78.49 28.66 78.36 28.66 76.51 28.66 69.65 28.66 69.65 30.64 66.62 30.64 76.51 30.64 76.51 30.64 78.49 30.64 78.49 30.64 88.38 30.64 85.35 30.64 85.35 28.66"/><polygon points="76.51 52.41 78.49 52.41 76.51 52.41 76.51 52.41" style="opacity:0.30000000000000004;mix-blend-mode:multiply"/><polygon points="78.49 49.37 78.49 49.37 78.49 52.41 78.49 49.37" style="opacity:0.30000000000000004;mix-blend-mode:multiply"/><rect x="76.51" y="49.37" width="1.98" height="3.03"/><rect x="76.51" y="49.37" width="1.98" height="3.03" style="opacity:0.30000000000000004;mix-blend-mode:multiply"/><polygon points="66.62 37.5 66.62 39.19 66.62 37.5 66.62 37.5" style="opacity:0.8;mix-blend-mode:multiply"/><polygon points="64.64 37.5 64.64 40.54 66.62 40.54 66.62 39.19 66.62 37.5 64.64 37.5"/><polygon points="64.64 37.5 64.64 40.54 66.62 40.54 66.62 39.19 66.62 37.5 64.64 37.5" style="opacity:0.8;mix-blend-mode:multiply"/><rect x="64.64" y="42.51" height="3.03" style="opacity:0.8;mix-blend-mode:multiply"/><rect x="64.64" y="42.51" width="1.98" height="3.03"/><rect x="64.64" y="42.51" width="1.98" height="3.03" style="opacity:0.8;mix-blend-mode:multiply"/><polygon points="78.49 30.64 78.49 33.67 78.49 33.67 78.49 30.64 76.51 30.64 76.51 30.64 78.49 30.64" style="opacity:0.8;mix-blend-mode:multiply"/><rect x="76.51" y="30.64" width="1.98" height="3.03"/><rect x="76.51" y="30.64" width="1.98" height="3.03" style="opacity:0.8;mix-blend-mode:multiply"/><rect x="76.51" y="30.64" width="1.98"/><rect x="76.51" y="30.64" width="1.98" style="opacity:0.8;mix-blend-mode:multiply"/><polygon points="66.62 28.66 69.65 28.66 69.65 28.66 66.62 28.66" style="opacity:0.30000000000000004;mix-blend-mode:multiply"/><polygon points="66.62 28.66 66.62 30.64 69.65 30.64 69.65 28.66 66.62 28.66 66.62 28.66"/><polygon points="66.62 28.66 66.62 30.64 69.65 30.64 69.65 28.66 66.62 28.66 66.62 28.66" style="opacity:0.30000000000000004;mix-blend-mode:multiply"/><polygon points="85.35 28.66 88.38 28.66 85.35 28.66 85.35 28.66" style="opacity:0.30000000000000004;mix-blend-mode:multiply"/><rect x="85.35" y="28.66" width="3.03" height="1.98"/><rect x="85.35" y="28.66" width="3.03" height="1.98" style="opacity:0.30000000000000004;mix-blend-mode:multiply"/><polygon points="73.47 40.54 73.47 40.54 76.51 40.54 73.47 40.54" style="opacity:0.30000000000000004;mix-blend-mode:multiply"/><polygon points="76.51 42.52 76.51 42.52 75.35 42.52 76.51 42.52" style="opacity:0.30000000000000004;mix-blend-mode:multiply"/><polygon points="75.35 42.52 76.51 42.52 76.51 40.54 73.47 40.54 73.47 42.52 75.35 42.52"/><polygon points="75.35 42.52 76.51 42.52 76.51 40.54 73.47 40.54 73.47 42.52 75.35 42.52" style="opacity:0.30000000000000004;mix-blend-mode:multiply"/><polygon points="81.52 40.53 79.82 40.54 81.52 40.54 81.52 40.53" style="opacity:0.30000000000000004;mix-blend-mode:multiply"/><polygon points="78.49 42.52 81.52 42.51 81.52 40.54 79.82 40.54 78.49 40.54 78.49 42.52"/><polygon points="78.49 42.52 81.52 42.51 81.52 40.54 79.82 40.54 78.49 40.54 78.49 42.52" style="opacity:0.30000000000000004;mix-blend-mode:multiply"/><polygon points="88.38 40.54 88.38 40.79 88.38 40.54 88.38 40.54 88.38 40.54"/><polygon points="90.36 42.52 95.23 42.52 95.23 40.54 90.36 40.54 90.36 40.54 90.36 42.52"/><polygon points="88.38 28.66 88.38 30.64 88.38 37.5 90.36 37.5 90.36 30.64 90.36 30.64 90.36 28.66 90.36 28.66 88.38 28.66 88.38 28.66"/><path d="M-75.18-317v11.87h2V-317Zm2,5h-2v-3h2Z" transform="translate(163.56 357.59)"/><polygon points="90.36 30.64 90.36 30.64 95.23 30.64 95.23 28.66 93.39 28.66 93.39 30.64 90.36 30.64"/><polygon points="88.38 40.54 88.38 40.54 88.38 40.54 88.38 37.5 88.38 37.5 88.38 40.54" style="opacity:0.8;mix-blend-mode:multiply"/><rect x="90.36" y="37.5" height="3.03" style="opacity:0.8;mix-blend-mode:multiply"/><rect x="88.38" y="37.5" width="1.98" height="3.03"/><rect x="88.38" y="37.5" width="1.98" height="3.03" style="opacity:0.8;mix-blend-mode:multiply"/><rect x="88.38" y="42.52" width="1.98" height="3.03"/><rect x="88.38" y="42.52" width="1.98" height="3.03" style="opacity:0.8;mix-blend-mode:multiply"/><polygon points="93.39 28.66 90.36 28.66 93.39 28.66 93.39 28.66" style="opacity:0.30000000000000004;mix-blend-mode:multiply"/><rect x="90.36" y="28.66" width="3.03" height="1.98"/><rect x="90.36" y="28.66" width="3.03" height="1.98" style="opacity:0.30000000000000004;mix-blend-mode:multiply"/><polygon points="4.6 64.28 0 64.28 0 66.26 2.25 66.26 2.25 64.28 4.6 64.28"/><polygon points="17.15 64.28 10.29 64.28 10.29 66.26 17.15 66.26 17.15 64.28 17.15 64.28"/><polygon points="10.02 64.28 7.26 64.28 7.26 64.97 7.26 64.28 10.02 64.28"/><polygon points="5.28 64.28 5.28 64.28 5.28 65.27 5.28 64.28"/><polygon points="5.28 73.11 7.26 73.11 7.26 66.26 7.26 66.26 7.26 64.97 7.26 64.28 7.26 57.42 5.28 57.42 5.28 54.39 5.28 64.28 5.28 65.27 5.28 66.26 5.28 66.26 5.28 76.15 5.28 76.15 5.28 73.11"/><polygon points="7.26 76.15 7.26 76.15 7.26 74.5 7.26 76.15"/><polygon points="7.26 54.38 7.26 54.39 17.15 54.39 14.12 54.39 14.12 52.41 7.26 52.41 5.28 52.41 0 52.41 0 54.39 5.28 54.39 5.28 54.38 7.26 54.38"/><polygon points="7.26 73.11 7.26 73.11 7.26 74.5 7.26 73.11" style="opacity:0.30000000000000004;mix-blend-mode:multiply"/><polygon points="7.26 73.11 5.28 73.11 5.28 76.15 6.27 76.15 7.26 76.15 7.26 74.5 7.26 73.11"/><polygon points="7.26 73.11 5.28 73.11 5.28 76.15 6.27 76.15 7.26 76.15 7.26 74.5 7.26 73.11" style="opacity:0.30000000000000004;mix-blend-mode:multiply"/><polygon points="7.26 54.39 7.26 57.42 7.26 57.42 7.26 54.39" style="opacity:0.8;mix-blend-mode:multiply"/><polygon points="7.26 57.42 7.26 54.39 7.26 54.38 5.28 54.38 5.28 54.39 5.28 57.42 7.26 57.42"/><polygon points="7.26 57.42 7.26 54.39 7.26 54.38 5.28 54.38 5.28 54.39 5.28 57.42 7.26 57.42" style="opacity:0.8;mix-blend-mode:multiply"/><polygon points="14.12 52.41 14.12 52.41 17.15 52.41 14.12 52.41" style="opacity:0.30000000000000004;mix-blend-mode:multiply"/><rect x="14.12" y="52.41" width="3.03" height="1.98"/><rect x="14.12" y="52.41" width="3.03" height="1.98" style="opacity:0.30000000000000004;mix-blend-mode:multiply"/><polygon points="5.28 64.28 4.6 64.28 5.28 64.28 5.28 64.28" style="opacity:0.30000000000000004;mix-blend-mode:multiply"/><rect x="2.25" y="66.26" width="3.03" style="opacity:0.30000000000000004;mix-blend-mode:multiply"/><polygon points="5.28 65.27 5.28 64.28 4.6 64.28 2.25 64.28 2.25 66.26 5.28 66.26 5.28 66.26 5.28 66.26 5.28 65.27"/><polygon points="5.28 65.27 5.28 64.28 4.6 64.28 2.25 64.28 2.25 66.26 5.28 66.26 5.28 66.26 5.28 66.26 5.28 65.27" style="opacity:0.30000000000000004;mix-blend-mode:multiply"/><polygon points="10.02 64.28 10.29 64.28 10.29 64.28 10.02 64.28" style="opacity:0.30000000000000004;mix-blend-mode:multiply"/><rect x="7.26" y="66.26" width="3.03" style="opacity:0.30000000000000004;mix-blend-mode:multiply"/><polygon points="10.29 66.26 10.29 64.28 10.02 64.28 7.26 64.28 7.26 64.97 7.26 66.26 7.26 66.26 7.26 66.26 10.29 66.26"/><polygon points="10.29 66.26 10.29 64.28 10.02 64.28 7.26 64.28 7.26 64.97 7.26 66.26 7.26 66.26 7.26 66.26 10.29 66.26" style="opacity:0.30000000000000004;mix-blend-mode:multiply"/><polygon points="25.99 64.28 27.45 64.28 19.13 64.28 19.13 66.26 29.02 66.26 29.02 66.26 25.99 66.26 25.99 64.28"/><polygon points="40.9 64.28 40.9 64.28 31 64.28 31 64.28 34.04 64.28 34.04 66.26 40.9 66.26 40.9 64.36 40.9 64.28"/><polygon points="31 66.26 31 66.26 31 65.27 31 66.26"/><polygon points="31 64.28 31 64.28 31 64.28 31 57.42 29.02 57.42 29.02 64.28 29.02 64.28 29.02 66.26 29.02 66.26 29.02 73.12 31 73.12 31 66.26 31 65.27 31 64.28"/><polygon points="17.15 69.29 17.15 66.26 17.15 76.15 19.13 76.15 19.13 69.29 17.15 69.29"/><polygon points="19.13 61.24 19.13 54.39 19.13 52.41 17.15 52.41 17.15 54.39 17.15 61.24 19.13 61.24"/><polygon points="19.13 64.28 19.13 64.28 17.15 64.28 17.15 66.26 19.13 66.26 19.13 64.28"/><polygon points="22.16 54.38 29.02 54.38 29.02 54.38 29.02 54.38 31 54.38 31 54.38 37.86 54.38 37.86 52.41 40.9 52.41 31 52.41 29.02 52.41 19.13 52.41 22.16 52.41 22.16 54.38"/><rect x="31" y="73.12" height="3.03" style="opacity:0.30000000000000004;mix-blend-mode:multiply"/><rect x="29.02" y="73.12" width="1.98" height="3.03"/><rect x="29.02" y="73.12" width="1.98" height="3.03" style="opacity:0.30000000000000004;mix-blend-mode:multiply"/><rect x="19.13" y="61.24" height="3.03" style="opacity:0.8;mix-blend-mode:multiply"/><polygon points="19.13 64.28 19.13 61.24 17.15 61.24 17.15 64.28 17.15 64.28 19.13 64.28"/><polygon points="19.13 64.28 19.13 61.24 17.15 61.24 17.15 64.28 17.15 64.28 19.13 64.28" style="opacity:0.8;mix-blend-mode:multiply"/><rect x="19.13" y="66.26" height="3.03" style="opacity:0.8;mix-blend-mode:multiply"/><rect x="17.15" y="66.26" width="1.98" height="3.03"/><rect x="17.15" y="66.26" width="1.98" height="3.03" style="opacity:0.8;mix-blend-mode:multiply"/><polygon points="31 54.39 31 54.38 29.83 54.38 31 54.39" style="opacity:0.8;mix-blend-mode:multiply"/><polygon points="31 54.39 31 57.42 31 57.42 31 54.39" style="opacity:0.8;mix-blend-mode:multiply"/><polygon points="29.83 54.38 31 54.38 31 54.38 29.02 54.38 29.02 54.38 29.02 54.38 29.02 57.42 31 57.42 31 54.39 29.83 54.38"/><polygon points="29.83 54.38 31 54.38 31 54.38 29.02 54.38 29.02 54.38 29.02 54.38 29.02 57.42 31 57.42 31 54.39 29.83 54.38" style="opacity:0.8;mix-blend-mode:multiply"/><polygon points="22.16 54.38 19.13 54.39 22.16 54.39 22.16 54.38" style="opacity:0.30000000000000004;mix-blend-mode:multiply"/><rect x="19.13" y="52.41" width="3.03" height="1.98"/><rect x="19.13" y="52.41" width="3.03" height="1.98" style="opacity:0.30000000000000004;mix-blend-mode:multiply"/><polygon points="40.9 54.38 37.86 54.38 37.86 54.39 40.9 54.38" style="opacity:0.30000000000000004;mix-blend-mode:multiply"/><polygon points="40.9 52.41 40.9 52.41 37.86 52.41 37.86 54.38 40.9 54.38 40.9 52.41"/><polygon points="40.9 52.41 40.9 52.41 37.86 52.41 37.86 54.38 40.9 54.38 40.9 52.41" style="opacity:0.30000000000000004;mix-blend-mode:multiply"/><polygon points="29.02 64.28 29.02 64.28 27.45 64.28 29.02 64.28" style="opacity:0.30000000000000004;mix-blend-mode:multiply"/><polygon points="25.99 64.28 25.99 66.26 29.02 66.26 29.02 64.28 27.45 64.28 25.99 64.28"/><polygon points="25.99 64.28 25.99 66.26 29.02 66.26 29.02 64.28 27.45 64.28 25.99 64.28" style="opacity:0.30000000000000004;mix-blend-mode:multiply"/><rect x="31" y="66.26" width="3.03" style="opacity:0.30000000000000004;mix-blend-mode:multiply"/><polygon points="31 64.28 31 64.28 31 65.27 31 66.26 34.04 66.26 34.04 64.28 31 64.28"/><polygon points="31 64.28 31 64.28 31 65.27 31 66.26 34.04 66.26 34.04 64.28 31 64.28" style="opacity:0.30000000000000004;mix-blend-mode:multiply"/><polygon points="64.64 64.28 57.78 64.28 57.78 66.26 54.74 66.26 54.74 64.28 55.69 64.28 54.74 64.28 54.74 66.26 64.64 66.26 64.64 64.28"/><polygon points="49.73 66.26 49.73 64.28 50.1 64.28 42.87 64.28 42.87 66.26 52.77 66.26 52.77 66.26 49.73 66.26"/><polygon points="54.74 75.64 54.74 66.26 54.74 64.28 54.74 54.89 54.74 57.42 52.77 57.42 52.77 64.28 52.77 64.28 52.77 66.26 52.77 66.26 52.77 66.26 52.77 73.11 54.74 73.12 54.74 75.64"/><polygon points="52.77 57.05 52.77 54.39 52.77 54.39 52.77 57.05"/><polygon points="42.87 69.29 40.9 69.29 40.9 76.15 42.87 76.15 42.87 68.28 42.87 69.29"/><polygon points="42.87 64.28 40.9 64.28 40.9 64.36 40.9 66.26 42.87 66.26 42.87 66.26 42.87 64.28 42.87 64.28"/><polygon points="40.9 52.41 40.9 61.24 42.87 61.24 42.87 52.41 42.87 52.41 40.9 52.41 40.9 52.41 40.9 52.41"/><polygon points="42.87 52.41 42.87 52.41 45.91 52.41 45.91 54.39 52.77 54.39 52.77 54.39 52.77 54.38 54.74 54.38 54.74 54.39 61.6 54.39 61.6 52.41 54.74 52.41 52.77 52.41 42.87 52.41"/><rect x="52.77" y="73.12" height="3.03" style="opacity:0.30000000000000004;mix-blend-mode:multiply"/><polygon points="54.74 76.15 54.74 76.15 54.74 75.64 54.74 76.15" style="opacity:0.30000000000000004;mix-blend-mode:multiply"/><polygon points="54.74 76.15 54.74 75.64 54.74 73.12 52.77 73.11 52.77 76.15 54.74 76.15"/><polygon points="54.74 76.15 54.74 75.64 54.74 73.12 52.77 73.11 52.77 76.15 54.74 76.15" style="opacity:0.30000000000000004;mix-blend-mode:multiply"/><rect x="40.9" y="61.24" height="3.03" style="opacity:0.8;mix-blend-mode:multiply"/><rect x="40.9" y="61.24" width="1.98" height="3.03"/><rect x="40.9" y="61.24" width="1.98" height="3.03" style="opacity:0.8;mix-blend-mode:multiply"/><polygon points="40.9 69.29 40.9 69.29 40.9 66.26 40.9 69.29" style="opacity:0.8;mix-blend-mode:multiply"/><polygon points="42.87 66.26 42.87 66.26 42.87 68.28 42.87 66.26" style="opacity:0.8;mix-blend-mode:multiply"/><polygon points="40.9 69.29 42.87 69.29 42.87 68.28 42.87 66.26 40.9 66.26 40.9 69.29"/><polygon points="40.9 69.29 42.87 69.29 42.87 68.28 42.87 66.26 40.9 66.26 40.9 69.29" style="opacity:0.8;mix-blend-mode:multiply"/><polygon points="54.74 54.39 54.74 54.89 54.74 54.39 54.74 54.39" style="opacity:0.8;mix-blend-mode:multiply"/><polygon points="52.77 57.42 52.77 57.42 52.77 57.05 52.77 57.42" style="opacity:0.8;mix-blend-mode:multiply"/><polygon points="54.74 54.39 54.74 54.38 52.77 54.38 52.77 54.39 52.77 57.05 52.77 57.42 54.74 57.42 54.74 54.89 54.74 54.39 54.74 54.39"/><polygon points="54.74 54.39 54.74 54.38 52.77 54.38 52.77 54.39 52.77 57.05 52.77 57.42 54.74 57.42 54.74 54.89 54.74 54.39 54.74 54.39" style="opacity:0.8;mix-blend-mode:multiply"/><polygon points="42.87 52.41 42.87 52.41 42.87 54.39 45.91 54.39 45.91 52.41 42.87 52.41"/><polygon points="42.87 52.41 42.87 52.41 42.87 54.39 45.91 54.39 45.91 52.41 42.87 52.41" style="opacity:0.30000000000000004;mix-blend-mode:multiply"/><polygon points="61.6 54.39 64.64 54.39 64.64 52.41 64.64 52.41 64.64 52.41 61.6 52.41 61.6 54.39"/><polygon points="61.6 54.39 64.64 54.39 64.64 52.41 64.64 52.41 64.64 52.41 61.6 52.41 61.6 54.39" style="opacity:0.30000000000000004;mix-blend-mode:multiply"/><polygon points="52.77 64.28 52.77 64.28 50.1 64.28 52.77 64.28" style="opacity:0.30000000000000004;mix-blend-mode:multiply"/><polygon points="50.1 64.28 49.73 64.28 49.73 66.26 52.77 66.26 52.77 66.26 52.77 64.28 52.77 64.28 52.77 64.28 50.1 64.28"/><polygon points="50.1 64.28 49.73 64.28 49.73 66.26 52.77 66.26 52.77 66.26 52.77 64.28 52.77 64.28 52.77 64.28 50.1 64.28" style="opacity:0.30000000000000004;mix-blend-mode:multiply"/><polygon points="55.69 64.28 57.78 64.28 57.78 64.28 55.69 64.28" style="opacity:0.30000000000000004;mix-blend-mode:multiply"/><polygon points="54.74 64.28 54.74 66.26 57.78 66.26 57.78 64.28 55.69 64.28 54.74 64.28"/><polygon points="54.74 64.28 54.74 66.26 57.78 66.26 57.78 64.28 55.69 64.28 54.74 64.28" style="opacity:0.30000000000000004;mix-blend-mode:multiply"/><polygon points="66.62 64.28 66.62 66.26 66.62 66.26 66.62 66.26 73.47 66.26 73.47 64.28 66.62 64.28 66.62 64.28 66.62 64.28"/><polygon points="79.88 64.28 78.49 64.28 78.49 64.28 79.88 64.28"/><polygon points="64.64 64.52 64.64 64.28 64.64 64.28 64.64 64.52"/><polygon points="81.52 66.26 78.49 66.26 78.49 65.55 78.49 66.26 88.38 66.26 88.38 64.28 81.52 64.28 81.52 66.26"/><polygon points="76.51 57.42 76.51 64.28 76.51 64.28 76.51 66.26 76.51 66.26 76.51 73.11 78.49 73.11 78.49 76.15 78.49 76.15 78.49 66.26 78.49 65.55 78.49 64.28 78.49 64.28 78.49 64.28 78.49 54.39 78.49 54.39 78.49 57.42 76.51 57.42"/><polygon points="64.64 66.26 66.62 66.26 66.62 64.28 64.64 64.28 64.64 64.52 64.64 66.26"/><polygon points="66.62 69.29 64.64 69.29 64.64 76.15 64.64 76.15 66.62 76.15 66.62 67.21 66.62 69.29"/><polygon points="64.64 61.24 66.62 61.24 66.62 62.86 66.62 52.41 66.62 52.41 64.64 52.41 64.64 52.41 64.64 61.24"/><polygon points="85.35 52.41 78.49 52.41 76.51 52.41 69.65 52.41 69.65 54.38 66.62 54.38 76.51 54.39 76.51 54.38 78.49 54.38 78.49 54.39 78.49 54.39 88.38 54.39 85.35 54.39 85.35 52.41"/><polygon points="76.51 73.11 76.51 76.15 76.51 73.11 76.51 73.11" style="opacity:0.30000000000000004;mix-blend-mode:multiply"/><rect x="76.51" y="73.12" width="1.98" height="3.03"/><rect x="76.51" y="73.12" width="1.98" height="3.03" style="opacity:0.30000000000000004;mix-blend-mode:multiply"/><rect x="64.64" y="61.24" height="3.03" style="opacity:0.8;mix-blend-mode:multiply"/><polygon points="66.62 64.28 66.62 62.86 66.62 64.28 66.62 64.28" style="opacity:0.8;mix-blend-mode:multiply"/><polygon points="64.64 61.24 64.64 64.28 66.62 64.28 66.62 64.28 66.62 64.28 66.62 64.28 66.62 62.86 66.62 61.24 64.64 61.24"/><polygon points="64.64 61.24 64.64 64.28 66.62 64.28 66.62 64.28 66.62 64.28 66.62 64.28 66.62 62.86 66.62 61.24 64.64 61.24" style="opacity:0.8;mix-blend-mode:multiply"/><rect x="64.64" y="66.26" height="3.03" style="opacity:0.8;mix-blend-mode:multiply"/><polygon points="66.62 67.21 66.62 66.26 66.62 66.26 66.62 67.21" style="opacity:0.8;mix-blend-mode:multiply"/><polygon points="66.62 66.26 64.64 66.26 64.64 69.29 66.62 69.29 66.62 67.21 66.62 66.26 66.62 66.26 66.62 66.26 66.62 66.26"/><polygon points="66.62 66.26 64.64 66.26 64.64 69.29 66.62 69.29 66.62 67.21 66.62 66.26 66.62 66.26 66.62 66.26 66.62 66.26" style="opacity:0.8;mix-blend-mode:multiply"/><polygon points="76.51 57.42 76.51 57.42 76.51 54.39 76.51 57.42" style="opacity:0.8;mix-blend-mode:multiply"/><polygon points="78.12 54.39 76.51 54.39 76.51 54.39 78.12 54.39" style="opacity:0.8;mix-blend-mode:multiply"/><polygon points="76.51 54.39 76.51 57.42 78.49 57.42 78.49 54.39 78.49 54.38 76.51 54.38 76.51 54.39 78.12 54.39 76.51 54.39"/><polygon points="76.51 54.39 76.51 57.42 78.49 57.42 78.49 54.39 78.49 54.38 76.51 54.38 76.51 54.39 78.12 54.39 76.51 54.39" style="opacity:0.8;mix-blend-mode:multiply"/><polygon points="66.62 52.41 69.65 52.41 69.65 52.41 66.62 52.41" style="opacity:0.30000000000000004;mix-blend-mode:multiply"/><polygon points="66.62 52.41 66.62 52.41 66.62 54.38 69.65 54.38 69.65 52.41 66.62 52.41 66.62 52.41"/><polygon points="66.62 52.41 66.62 52.41 66.62 54.38 69.65 54.38 69.65 52.41 66.62 52.41 66.62 52.41" style="opacity:0.30000000000000004;mix-blend-mode:multiply"/><polygon points="85.35 52.41 88.38 52.41 85.35 52.41 85.35 52.41" style="opacity:0.30000000000000004;mix-blend-mode:multiply"/><rect x="85.35" y="52.41" width="3.03" height="1.98"/><rect x="85.35" y="52.41" width="3.03" height="1.98" style="opacity:0.30000000000000004;mix-blend-mode:multiply"/><polygon points="73.47 66.26 75.43 66.26 73.47 66.26 73.47 66.26" style="opacity:0.30000000000000004;mix-blend-mode:multiply"/><rect x="73.48" y="64.28" width="3.03" style="opacity:0.30000000000000004;mix-blend-mode:multiply"/><polygon points="75.43 66.26 76.51 66.26 76.51 66.26 76.51 64.28 76.51 64.28 76.51 64.28 73.47 64.28 73.47 66.26 75.43 66.26"/><polygon points="75.43 66.26 76.51 66.26 76.51 66.26 76.51 64.28 76.51 64.28 76.51 64.28 73.47 64.28 73.47 66.26 75.43 66.26" style="opacity:0.30000000000000004;mix-blend-mode:multiply"/><polygon points="81.52 64.28 79.88 64.28 81.52 64.28 81.52 64.28" style="opacity:0.30000000000000004;mix-blend-mode:multiply"/><polygon points="78.49 64.28 78.49 65.55 78.49 66.26 81.52 66.26 81.52 64.28 79.88 64.28 78.49 64.28 78.49 64.28"/><polygon points="78.49 64.28 78.49 65.55 78.49 66.26 81.52 66.26 81.52 64.28 79.88 64.28 78.49 64.28 78.49 64.28" style="opacity:0.30000000000000004;mix-blend-mode:multiply"/><polygon points="90.36 64.28 90.36 66.26 90.36 66.26 90.36 66.26 95.23 66.26 95.23 64.28 90.36 64.28 90.36 64.28 90.36 64.28"/><polygon points="88.38 52.41 88.38 54.39 88.38 64.28 88.38 66.26 88.38 76.15 90.36 76.15 90.36 69.29 88.38 69.29 88.38 66.26 90.36 66.26 90.36 64.28 88.38 64.28 88.38 61.24 90.36 61.24 90.36 61.4 90.36 54.39 90.36 54.39 90.36 52.41 88.38 52.41 88.38 52.41"/><polygon points="90.36 54.39 90.36 54.39 95.23 54.39 95.23 52.41 93.39 52.41 93.39 54.39 90.36 54.39"/><polygon points="90.36 64.28 90.36 61.4 90.36 64.28 90.36 64.28" style="opacity:0.8;mix-blend-mode:multiply"/><polygon points="88.38 61.24 88.38 64.28 90.36 64.28 90.36 64.28 90.36 64.28 90.36 64.28 90.36 61.4 90.36 61.24 88.38 61.24"/><polygon points="88.38 61.24 88.38 64.28 90.36 64.28 90.36 64.28 90.36 64.28 90.36 64.28 90.36 61.4 90.36 61.24 88.38 61.24" style="opacity:0.8;mix-blend-mode:multiply"/><rect x="90.36" y="66.26" height="3.03" style="opacity:0.8;mix-blend-mode:multiply"/><polygon points="90.36 66.26 88.38 66.26 88.38 69.29 90.36 69.29 90.36 66.26 90.36 66.26 90.36 66.26 90.36 66.26"/><polygon points="90.36 66.26 88.38 66.26 88.38 69.29 90.36 69.29 90.36 66.26 90.36 66.26 90.36 66.26 90.36 66.26" style="opacity:0.8;mix-blend-mode:multiply"/><polygon points="93.39 52.41 90.36 52.41 93.39 52.41 93.39 52.41" style="opacity:0.30000000000000004;mix-blend-mode:multiply"/><rect x="90.36" y="52.41" width="3.03" height="1.98"/><rect x="90.36" y="52.41" width="3.03" height="1.98" style="opacity:0.30000000000000004;mix-blend-mode:multiply"/><polygon points="5.28 88.02 5.28 90 5.28 88.02 0 88.02 0 90 2.25 90 2.25 88.02 5.28 88.02"/><polygon points="17.15 88.02 7.26 88.02 7.26 90 7.26 90 7.26 88.02 10.29 88.02 10.29 90 7.76 90 17.15 90 17.15 88.02 17.15 88.02"/><polygon points="7.26 81.16 5.28 81.16 5.28 88.02 5.28 90 5.28 90 5.28 95.23 7.26 95.23 7.26 90 7.26 88.02 7.26 81.16"/><polygon points="7.26 78.13 7.26 78.13 14.12 78.13 14.12 76.15 7.26 76.15 7.26 76.15 6.27 76.15 5.28 76.15 5.28 76.15 0 76.15 0 78.13 5.28 78.13 5.28 78.13 7.26 78.13"/><polygon points="7.26 78.13 7.26 81.16 7.26 81.16 7.26 78.13 5.28 78.13 5.28 81.16 5.28 81.16 5.28 78.13 7.26 78.13" style="opacity:0.8;mix-blend-mode:multiply"/><rect x="5.28" y="78.13" width="1.98" height="3.03"/><rect x="5.28" y="78.13" width="1.98" height="3.03" style="opacity:0.8;mix-blend-mode:multiply"/><rect x="5.28" y="78.13" width="1.98"/><rect x="5.28" y="78.13" width="1.98" style="opacity:0.8;mix-blend-mode:multiply"/><polygon points="17.15 76.15 17.15 76.15 14.12 76.15 14.12 78.13 17.15 78.13 17.15 76.15"/><polygon points="17.15 76.15 17.15 76.15 14.12 76.15 14.12 78.13 17.15 78.13 17.15 76.15" style="opacity:0.30000000000000004;mix-blend-mode:multiply"/><rect x="2.25" y="90" width="3.03" style="opacity:0.30000000000000004;mix-blend-mode:multiply"/><rect x="2.25" y="88.02" width="3.03" height="1.98"/><rect x="2.25" y="88.02" width="3.03" height="1.98" style="opacity:0.30000000000000004;mix-blend-mode:multiply"/><polygon points="7.26 90 7.76 90 7.26 90 7.26 90" style="opacity:0.30000000000000004;mix-blend-mode:multiply"/><polygon points="10.29 88.02 7.26 88.02 7.26 90 7.76 90 10.29 90 10.29 88.02"/><polygon points="10.29 88.02 7.26 88.02 7.26 90 7.76 90 10.29 90 10.29 88.02" style="opacity:0.30000000000000004;mix-blend-mode:multiply"/><polygon points="25.99 90 25.99 88.02 19.13 88.02 19.13 90 29.02 90 29.02 90 25.99 90"/><polygon points="34.04 88.02 34.04 90 33.22 90 40.9 90 40.9 88.02 34.04 88.02"/><polygon points="31 88.02 31.94 88.02 31 88.02 31 88.02"/><polygon points="29.02 89.01 29.02 88.02 29.02 88.02 29.02 89.01"/><polygon points="31 88.02 31 88.02 31 78.13 31 81.16 29.02 81.16 29.02 78.13 29.02 78.13 29.02 88.02 29.02 89.01 29.02 90 29.02 90 29.02 90 29.02 95.23 31 95.23 31 90 31 90 31 88.02"/><polygon points="19.13 84.99 19.13 78.13 19.13 76.15 19.13 76.15 17.15 76.15 17.15 76.15 17.15 78.13 17.15 88.02 17.15 88.02 17.15 84.99 19.13 84.99"/><rect x="17.15" y="93.03" width="1.98" height="2.2"/><polygon points="19.13 87.77 19.13 88.02 17.15 88.02 17.15 90 19.13 90 19.13 92.03 19.13 90 19.13 88.02 19.13 87.77"/><polygon points="37.86 76.15 31 76.15 31 76.15 29.02 76.15 19.13 76.15 22.17 76.15 22.16 78.13 19.13 78.13 29.02 78.13 29.02 78.13 29.02 78.13 31 78.13 31 78.13 40.9 78.13 37.86 78.13 37.86 76.15"/><polygon points="19.13 84.99 19.13 87.77 19.13 84.99 19.13 84.99" style="opacity:0.8;mix-blend-mode:multiply"/><polygon points="17.15 84.99 17.15 88.02 19.13 88.02 19.13 87.77 19.13 84.99 17.15 84.99"/><polygon points="17.15 84.99 17.15 88.02 19.13 88.02 19.13 87.77 19.13 84.99 17.15 84.99" style="opacity:0.8;mix-blend-mode:multiply"/><polygon points="17.15 90 17.15 93.03 19.13 93.03 19.13 92.03 19.13 90 17.15 90"/><polygon points="17.15 90 17.15 93.03 19.13 93.03 19.13 92.03 19.13 90 17.15 90" style="opacity:0.8;mix-blend-mode:multiply"/><polygon points="30.19 78.13 31 78.13 31 78.13 30.19 78.13" style="opacity:0.8;mix-blend-mode:multiply"/><polygon points="31 78.13 31 78.13 29.02 78.13 29.02 78.13 29.02 81.16 31 81.16 31 78.13 30.19 78.13 31 78.13"/><polygon points="31 78.13 31 78.13 29.02 78.13 29.02 78.13 29.02 81.16 31 81.16 31 78.13 30.19 78.13 31 78.13" style="opacity:0.8;mix-blend-mode:multiply"/><polygon points="19.13 78.13 22.16 78.13 22.17 76.15 19.13 76.15 19.13 76.15 19.13 78.13"/><polygon points="19.13 78.13 22.16 78.13 22.17 76.15 19.13 76.15 19.13 76.15 19.13 78.13" style="opacity:0.30000000000000004;mix-blend-mode:multiply"/><polygon points="37.86 76.15 40.9 76.15 37.86 76.15 37.86 76.15" style="opacity:0.30000000000000004;mix-blend-mode:multiply"/><rect x="37.86" y="76.15" width="3.03" height="1.98"/><rect x="37.86" y="76.15" width="3.03" height="1.98" style="opacity:0.30000000000000004;mix-blend-mode:multiply"/><rect x="25.99" y="88.02" width="3.03" style="opacity:0.30000000000000004;mix-blend-mode:multiply"/><polygon points="25.99 88.02 25.99 90 29.02 90 29.02 90 29.02 89.01 29.02 88.02 25.99 88.02"/><polygon points="25.99 88.02 25.99 90 29.02 90 29.02 90 29.02 89.01 29.02 88.02 25.99 88.02" style="opacity:0.30000000000000004;mix-blend-mode:multiply"/><polygon points="31.94 88.02 34.04 88.02 34.04 88.02 31.94 88.02" style="opacity:0.30000000000000004;mix-blend-mode:multiply"/><polygon points="31 90 33.22 90 31 90 31 90" style="opacity:0.30000000000000004;mix-blend-mode:multiply"/><polygon points="34.04 88.02 31.94 88.02 31 88.02 31 90 33.22 90 34.04 90 34.04 88.02"/><polygon points="34.04 88.02 31.94 88.02 31 88.02 31 90 33.22 90 34.04 90 34.04 88.02" style="opacity:0.30000000000000004;mix-blend-mode:multiply"/><polygon points="57.78 88.02 57.78 90 54.74 90 54.74 90 64.64 90 64.64 88.02 57.78 88.02"/><polygon points="54.74 88.02 54.74 88.02 55.69 88.02 54.74 88.02"/><polygon points="52.77 90 49.73 90 49.73 88.02 42.87 88.02 42.87 90 52.77 90 52.77 89.16 52.77 90"/><polygon points="54.74 89.01 54.74 88.02 54.74 88.02 54.74 78.62 54.74 81.16 52.77 81.16 52.77 88.02 52.77 88.02 52.77 89.16 52.77 90 52.77 95.23 54.74 95.23 54.74 90 54.74 90 54.74 89.01"/><polygon points="42.87 76.15 40.9 76.15 40.9 78.13 40.9 84.99 42.87 84.99 42.87 88.02 40.9 88.02 40.9 87.41 40.9 88.02 40.9 90 42.87 90 42.87 93.03 40.9 93.03 40.9 95.23 42.87 95.23 42.87 90 42.87 88.02 42.87 76.15"/><polygon points="64.64 76.15 64.64 76.15 54.74 76.15 54.74 76.15 52.77 76.15 52.77 76.15 45.91 76.15 45.91 78.13 52.77 78.13 52.77 78.13 54.74 78.13 54.74 78.13 61.6 78.13 61.6 76.15 64.64 76.15"/><polygon points="40.9 87.41 40.9 84.99 40.9 84.99 40.9 87.41" style="opacity:0.8;mix-blend-mode:multiply"/><polygon points="40.9 88.02 42.87 88.02 42.87 84.99 40.9 84.99 40.9 87.41 40.9 88.02"/><polygon points="40.9 88.02 42.87 88.02 42.87 84.99 40.9 84.99 40.9 87.41 40.9 88.02" style="opacity:0.8;mix-blend-mode:multiply"/><rect x="40.9" y="90" width="1.98" height="3.03"/><rect x="40.9" y="90" width="1.98" height="3.03" style="opacity:0.8;mix-blend-mode:multiply"/><polygon points="52.77 81.16 52.77 81.16 52.77 78.13 52.77 81.16" style="opacity:0.8;mix-blend-mode:multiply"/><polygon points="54.74 78.13 54.74 78.62 54.74 78.13 54.74 78.13" style="opacity:0.8;mix-blend-mode:multiply"/><polygon points="54.74 78.13 54.74 78.13 52.77 78.13 52.77 78.13 52.77 81.16 54.74 81.16 54.74 78.62 54.74 78.13 54.74 78.13"/><polygon points="54.74 78.13 54.74 78.13 52.77 78.13 52.77 78.13 52.77 81.16 54.74 81.16 54.74 78.62 54.74 78.13 54.74 78.13" style="opacity:0.8;mix-blend-mode:multiply"/><rect x="42.87" y="76.15" width="3.03" height="1.98"/><rect x="42.87" y="76.15" width="3.03" height="1.98" style="opacity:0.30000000000000004;mix-blend-mode:multiply"/><polygon points="61.6 76.15 61.6 78.13 64.64 78.13 64.64 76.15 64.64 76.15 61.6 76.15"/><polygon points="61.6 76.15 61.6 78.13 64.64 78.13 64.64 76.15 64.64 76.15 61.6 76.15" style="opacity:0.30000000000000004;mix-blend-mode:multiply"/><rect x="49.73" y="88.02" width="3.03" style="opacity:0.30000000000000004;mix-blend-mode:multiply"/><polygon points="49.73 88.02 49.73 90 52.77 90 52.77 89.16 52.77 88.02 52.77 88.02 52.77 88.02 49.73 88.02"/><polygon points="49.73 88.02 49.73 90 52.77 90 52.77 89.16 52.77 88.02 52.77 88.02 52.77 88.02 49.73 88.02" style="opacity:0.30000000000000004;mix-blend-mode:multiply"/><polygon points="55.69 88.02 57.78 88.02 57.78 88.02 55.69 88.02" style="opacity:0.30000000000000004;mix-blend-mode:multiply"/><polygon points="54.74 88.02 54.74 89.01 54.74 90 57.78 90 57.78 88.02 55.69 88.02 54.74 88.02"/><polygon points="54.74 88.02 54.74 89.01 54.74 90 57.78 90 57.78 88.02 55.69 88.02 54.74 88.02" style="opacity:0.30000000000000004;mix-blend-mode:multiply"/><polygon points="78.49 90 81.52 90 78.49 90 78.49 90"/><polygon points="88.38 88.02 88.38 88.02 88.38 88.02 78.49 88.02 78.49 88.02 81.52 88.02 81.52 90 88.38 90 88.38 88.91 88.38 88.02"/><polygon points="75.81 88.02 66.62 88.02 66.62 88.02 66.62 88.02 66.62 90 73.47 90 73.47 88.02 75.81 88.02"/><polygon points="76.51 89.85 76.51 88.02 76.51 88.02 76.51 89.85"/><polygon points="78.49 89.01 78.49 88.02 78.49 88.02 78.49 80.62 78.49 81.16 76.51 81.16 76.51 88.02 76.51 89.85 76.51 90 76.51 90 76.51 95.23 78.49 95.23 78.49 90 78.49 90 78.49 89.01"/><polygon points="64.64 93.03 64.64 95.23 66.62 95.23 66.62 92.03 66.62 93.03 64.64 93.03"/><polygon points="64.64 76.15 64.64 84.99 66.62 84.99 66.62 86.68 66.62 76.15 66.62 76.15 66.62 76.15 64.64 76.15 64.64 76.15"/><polygon points="64.64 88.02 64.64 85.6 64.64 88.02 64.64 90 64.64 91.18 64.64 90 66.62 90 66.62 90 66.62 88.02 64.64 88.02"/><polygon points="78.49 76.15 76.51 76.15 66.62 76.15 69.65 76.15 69.65 78.13 66.62 78.13 76.51 78.13 76.51 78.13 78.49 78.13 78.49 78.13 85.35 78.13 85.35 76.15 88.38 76.15 78.49 76.15 78.49 76.15"/><polygon points="64.64 84.99 64.64 85.6 64.64 84.99 64.64 84.99" style="opacity:0.8;mix-blend-mode:multiply"/><polygon points="66.62 88.02 66.62 88.02 66.62 86.68 66.62 88.02" style="opacity:0.8;mix-blend-mode:multiply"/><polygon points="66.62 86.68 66.62 84.99 64.64 84.99 64.64 85.6 64.64 88.02 66.62 88.02 66.62 88.02 66.62 88.02 66.62 88.02 66.62 86.68"/><polygon points="66.62 86.68 66.62 84.99 64.64 84.99 64.64 85.6 64.64 88.02 66.62 88.02 66.62 88.02 66.62 88.02 66.62 88.02 66.62 86.68" style="opacity:0.8;mix-blend-mode:multiply"/><polygon points="64.64 93.03 64.64 93.03 64.64 91.18 64.64 93.03" style="opacity:0.8;mix-blend-mode:multiply"/><polygon points="66.62 90 66.62 90 66.62 92.03 66.62 90" style="opacity:0.8;mix-blend-mode:multiply"/><polygon points="64.64 91.18 64.64 93.03 66.62 93.03 66.62 92.03 66.62 90 64.64 90 64.64 91.18"/><polygon points="64.64 91.18 64.64 93.03 66.62 93.03 66.62 92.03 66.62 90 64.64 90 64.64 91.18" style="opacity:0.8;mix-blend-mode:multiply"/><polygon points="76.51 78.13 76.51 81.16 76.51 81.16 76.51 78.13 78.49 78.13 78.49 80.62 78.49 78.13 76.51 78.13" style="opacity:0.8;mix-blend-mode:multiply"/><polygon points="76.51 78.13 76.51 81.16 78.49 81.16 78.49 80.62 78.49 78.13 76.51 78.13"/><polygon points="76.51 78.13 76.51 81.16 78.49 81.16 78.49 80.62 78.49 78.13 76.51 78.13" style="opacity:0.8;mix-blend-mode:multiply"/><rect x="76.51" y="78.13" width="1.98"/><rect x="76.51" y="78.13" width="1.98" style="opacity:0.8;mix-blend-mode:multiply"/><polygon points="66.62 76.15 66.62 78.13 69.65 78.13 69.65 76.15 66.62 76.15 66.62 76.15 66.62 76.15"/><polygon points="66.62 76.15 66.62 78.13 69.65 78.13 69.65 76.15 66.62 76.15 66.62 76.15 66.62 76.15" style="opacity:0.30000000000000004;mix-blend-mode:multiply"/><polygon points="88.38 78.13 85.35 78.13 85.35 78.13 88.38 78.13" style="opacity:0.30000000000000004;mix-blend-mode:multiply"/><rect x="85.35" y="76.15" width="3.03" height="1.98"/><rect x="85.35" y="76.15" width="3.03" height="1.98" style="opacity:0.30000000000000004;mix-blend-mode:multiply"/><polygon points="75.81 88.02 76.51 88.02 76.51 88.02 75.81 88.02" style="opacity:0.30000000000000004;mix-blend-mode:multiply"/><rect x="73.48" y="90" width="3.03" style="opacity:0.30000000000000004;mix-blend-mode:multiply"/><polygon points="76.51 89.85 76.51 88.02 75.81 88.02 73.47 88.02 73.47 90 76.51 90 76.51 89.85"/><polygon points="76.51 89.85 76.51 88.02 75.81 88.02 73.47 88.02 73.47 90 76.51 90 76.51 89.85" style="opacity:0.30000000000000004;mix-blend-mode:multiply"/><polygon points="78.49 88.02 78.49 89.01 78.49 90 81.52 90 81.52 88.02 78.49 88.02"/><polygon points="78.49 88.02 78.49 89.01 78.49 90 81.52 90 81.52 88.02 78.49 88.02" style="opacity:0.30000000000000004;mix-blend-mode:multiply"/><rect x="90.36" y="88.02" width="4.87" height="1.98"/><polygon points="88.38 88.02 88.38 88.24 88.38 88.02 88.38 88.02 88.38 88.02"/><polygon points="88.38 76.15 88.38 84.99 90.36 84.99 90.36 78.13 90.36 78.13 90.36 76.15 90.36 76.15 88.38 76.15 88.38 76.15"/><path d="M-75.18-269.35v7h2v-7.21h-2Zm0,1.76h2v3h-2Z" transform="translate(163.56 357.59)"/><polygon points="93.39 78.13 95.23 78.13 95.23 76.15 90.36 76.15 93.39 76.15 93.39 78.13"/><polygon points="88.38 88.02 88.38 88.02 88.38 88.02 88.38 84.99 88.38 84.99 88.38 88.02" style="opacity:0.8;mix-blend-mode:multiply"/><rect x="88.38" y="84.99" width="1.98" height="3.03"/><rect x="88.38" y="84.99" width="1.98" height="3.03" style="opacity:0.8;mix-blend-mode:multiply"/><rect x="88.38" y="90" width="1.98" height="3.03"/><rect x="88.38" y="90" width="1.98" height="3.03" style="opacity:0.8;mix-blend-mode:multiply"/><polygon points="93.39 78.13 93.39 78.13 90.36 78.13 93.39 78.13" style="opacity:0.30000000000000004;mix-blend-mode:multiply"/><polygon points="90.36 78.13 93.39 78.13 93.39 76.15 90.36 76.15 90.36 78.13 90.36 78.13"/><polygon points="90.36 78.13 93.39 78.13 93.39 76.15 90.36 76.15 90.36 78.13 90.36 78.13" style="opacity:0.30000000000000004;mix-blend-mode:multiply"/><rect x="68.24" y="306.76" width="1298.94" height="956.95" style="fill:none"/><rect x="153.74" y="338.26" width="1861.41" height="1216.44" style="opacity:0.08;fill:url(#New_Pattern)"/></g></g></svg>