<?xml version="1.0" standalone="no"?>
<!DOCTYPE svg PUBLIC "-//W3C//DTD SVG 20010904//EN"
 "http://www.w3.org/TR/2001/REC-SVG-20010904/DTD/svg10.dtd">
<svg version="1.0" xmlns="http://www.w3.org/2000/svg"
 width="16.000000pt" height="16.000000pt" viewBox="0 0 16.000000 16.000000"
 preserveAspectRatio="xMidYMid meet">
<metadata>
Created by potrace 1.11, written by Peter Selinger 2001-2013
</metadata>
<g transform="translate(0.000000,16.000000) scale(0.006154,-0.006154)"
fill="#000000" stroke="none">
<path d="M1780 1300 l0 -1300 30 0 30 0 0 1300 0 1300 -30 0 -30 0 0 -1300z"/>
<path d="M901 1455 c-24 -7 -59 -29 -79 -47 -113 -108 -88 -278 52 -350 60
-31 161 -23 217 17 64 45 91 104 87 187 -3 55 -9 75 -34 110 -54 77 -154 112
-243 83z"/>
</g>
</svg>
